<svg width="290" height="163" viewBox="0 0 290 163" fill="none" xmlns="http://www.w3.org/2000/svg">
<g clip-path="url(#clip0_473_4136)">
<path d="M119.199 147.574C119.199 191.001 82.8886 226.232 38.0645 226.232C-6.75967 226.232 -43.0703 191.001 -43.0703 147.574C-43.0703 104.147 -6.75967 68.916 38.0645 68.916C82.8886 68.916 119.199 104.147 119.199 147.574Z" stroke="#6B6B6B"/>
<path d="M139.387 147.573C139.387 201.811 94.0378 245.806 38.0645 245.806C-17.9089 245.806 -63.2578 201.811 -63.2578 147.573C-63.2578 93.3347 -17.9089 49.3398 38.0645 49.3398C94.0378 49.3398 139.387 93.3347 139.387 147.573Z" stroke="#6B6B6B"/>
<path d="M165.963 136.886C166.199 139.574 166.346 142.286 166.403 145.019L165.903 145.03C165.921 145.876 165.93 146.724 165.93 147.574C165.93 148.424 165.921 149.272 165.903 150.119L166.403 150.129C166.346 152.863 166.199 155.575 165.963 158.262L165.465 158.218C165.317 159.909 165.133 161.59 164.916 163.26L165.412 163.325C165.059 166.031 164.617 168.711 164.088 171.36L163.598 171.263C163.266 172.925 162.9 174.576 162.501 176.214L162.986 176.333C162.341 178.98 161.608 181.595 160.79 184.175L160.314 184.024C159.802 185.639 159.257 187.24 158.68 188.826L159.15 188.997C158.219 191.555 157.205 194.075 156.11 196.553L155.652 196.351C154.968 197.899 154.253 199.431 153.506 200.946L153.955 201.167C152.753 203.607 151.471 206.003 150.113 208.352L149.68 208.101C148.833 209.566 147.957 211.012 147.052 212.438L147.474 212.706C146.018 215.001 144.488 217.246 142.886 219.438L142.482 219.144C141.485 220.509 140.46 221.854 139.408 223.177L139.8 223.488C138.11 225.614 136.352 227.685 134.527 229.698L134.156 229.363C133.022 230.615 131.861 231.845 130.676 233.052L131.032 233.402C129.131 235.338 127.166 237.215 125.14 239.029L124.807 238.656C123.549 239.784 122.267 240.886 120.962 241.964L121.281 242.35C119.19 244.077 117.041 245.741 114.838 247.338L114.545 246.933C113.177 247.924 111.789 248.889 110.38 249.828L110.657 250.244C108.402 251.746 106.094 253.18 103.738 254.544L103.488 254.111C102.026 254.956 100.545 255.775 99.0461 256.565L99.2792 257.007C96.8842 258.269 94.4431 259.46 91.959 260.576L91.7541 260.12C90.2143 260.811 88.6579 261.474 87.0856 262.107L87.2724 262.571C84.763 263.582 82.2133 264.518 79.6264 265.376L79.469 264.901C77.8677 265.432 76.2522 265.933 74.623 266.404L74.7617 266.884C72.1646 267.634 69.533 268.306 66.8698 268.899L66.7613 268.41C65.1156 268.776 63.4579 269.111 61.7887 269.415L61.8781 269.907C59.221 270.39 56.5349 270.794 53.8227 271.116L53.7638 270.62C52.0909 270.818 50.4081 270.985 48.7159 271.121L48.7557 271.619C46.0663 271.834 43.3534 271.969 40.6196 272.021L40.6101 271.521C39.7635 271.537 38.915 271.545 38.0645 271.545C37.214 271.545 36.3654 271.537 35.5189 271.521L35.5094 272.021C32.7755 271.969 30.0626 271.834 27.3732 271.619L27.4131 271.121C25.7209 270.985 24.038 270.818 22.3652 270.62L22.3062 271.116C19.594 270.794 16.908 270.39 14.2508 269.907L14.3403 269.415C12.6711 269.111 11.0133 268.776 9.36766 268.41L9.25915 268.899C6.59597 268.306 3.96439 267.634 1.36727 266.884L1.50599 266.404C-0.123199 265.933 -1.73877 265.432 -3.34001 264.901L-3.49741 265.376C-6.08434 264.518 -8.63401 263.582 -11.1435 262.571L-10.9567 262.107C-12.5289 261.474 -14.0854 260.811 -15.6252 260.12L-15.83 260.576C-18.3141 259.46 -20.7552 258.269 -23.1503 257.007L-22.9171 256.565C-24.416 255.775 -25.8967 254.956 -27.3586 254.111L-27.609 254.544C-29.9653 253.18 -32.2728 251.746 -34.5284 250.244L-34.2512 249.828C-35.66 248.889 -37.0484 247.924 -38.4156 246.933L-38.7091 247.338C-40.9124 245.741 -43.0611 244.078 -45.1519 242.35L-44.8334 241.964C-46.1378 240.886 -47.4196 239.784 -48.678 238.656L-49.0116 239.029C-51.037 237.215 -53.0021 235.338 -54.9036 233.402L-54.5469 233.052C-55.7322 231.845 -56.8927 230.615 -58.0275 229.363L-58.398 229.698C-60.2226 227.685 -61.9812 225.614 -63.6706 223.488L-63.2792 223.177C-64.3312 221.854 -65.3563 220.509 -66.3535 219.144L-66.7573 219.438C-68.359 217.246 -69.8894 215.001 -71.3451 212.706L-70.9229 212.438C-71.8282 211.012 -72.7046 209.566 -73.5511 208.101L-73.984 208.352C-75.3419 206.003 -76.6236 203.607 -77.8257 201.167L-77.3772 200.946C-78.1236 199.431 -78.8393 197.899 -79.5233 196.351L-79.9807 196.553C-81.0758 194.075 -82.0903 191.555 -83.0211 188.997L-82.5512 188.826C-83.1284 187.24 -83.6732 185.639 -84.1848 184.024L-84.6615 184.175C-85.4786 181.595 -86.2116 178.98 -86.8574 176.333L-86.3717 176.214C-86.7713 174.576 -87.1374 172.925 -87.4692 171.263L-87.9595 171.36C-88.4883 168.711 -88.9304 166.031 -89.2829 163.325L-88.787 163.26C-89.0046 161.59 -89.1878 159.909 -89.3361 158.219L-89.8342 158.262C-90.0699 155.575 -90.2175 152.863 -90.2743 150.129L-89.7744 150.119C-89.792 149.272 -89.8008 148.424 -89.8008 147.574C-89.8008 146.724 -89.792 145.876 -89.7744 145.03L-90.2743 145.019C-90.2175 142.286 -90.0699 139.574 -89.8342 136.886L-89.3361 136.93C-89.1878 135.239 -89.0046 133.559 -88.787 131.888L-89.2829 131.824C-88.9304 129.117 -88.4883 126.438 -87.9595 123.788L-87.4692 123.886C-87.1374 122.223 -86.7713 120.572 -86.3717 118.934L-86.8574 118.815C-86.2116 116.168 -85.4786 113.553 -84.6615 110.974L-84.1849 111.125C-83.6732 109.51 -83.1284 107.909 -82.5513 106.322L-83.0211 106.151C-82.0903 103.593 -81.0758 101.073 -79.9807 98.5949L-79.5233 98.797C-78.8393 97.2489 -78.1237 95.717 -77.3772 94.2021L-77.8257 93.9812C-76.6236 91.5414 -75.3419 89.1455 -73.984 86.7966L-73.5511 87.0469C-72.7046 85.5826 -71.8282 84.1367 -70.9229 82.7099L-71.3451 82.442C-69.8894 80.1476 -68.359 77.9025 -66.7573 75.7098L-66.3535 76.0048C-65.3563 74.6396 -64.3312 73.2947 -63.2792 71.9711L-63.6706 71.66C-61.9812 69.5345 -60.2226 67.4634 -58.398 65.4499L-58.0275 65.7856C-56.8926 64.5333 -55.7322 63.3033 -54.5469 62.0965L-54.9036 61.7461C-53.0021 59.8102 -51.0371 57.9336 -49.0116 56.1194L-48.678 56.4919C-47.4196 55.3648 -46.1378 54.2619 -44.8334 53.184L-45.1519 52.7985C-43.0611 51.0708 -40.9124 49.4069 -38.7091 47.8101L-38.4157 48.2149C-37.0484 47.224 -35.66 46.259 -34.2512 45.3207L-34.5284 44.9045C-32.2729 43.4022 -29.9653 41.9679 -27.609 40.6047L-27.3586 41.0375C-25.8967 40.1919 -24.416 39.3737 -22.9172 38.5837L-23.1503 38.1413C-20.7553 36.879 -18.3142 35.6884 -15.8301 34.5726L-15.6252 35.0287C-14.0854 34.337 -12.529 33.6742 -10.9567 33.0409L-11.1435 32.5771C-8.63407 31.5663 -6.08438 30.6305 -3.49746 29.7726L-3.34007 30.2472C-1.73882 29.7161 -0.123253 29.215 1.50593 28.7446L1.36721 28.2642C3.96433 27.5142 6.59592 26.8418 9.2591 26.2497L9.36761 26.7378C11.0133 26.3719 12.671 26.0369 14.3403 25.7332L14.2508 25.2413C16.908 24.758 19.594 24.354 22.3062 24.0321L22.3651 24.5286C24.038 24.33 25.7208 24.1628 27.413 24.0275L27.3732 23.5291C30.0626 23.3141 32.7755 23.1794 35.5094 23.1277L35.5188 23.6276C36.3654 23.6116 37.2139 23.6035 38.0645 23.6035C38.9149 23.6035 39.7635 23.6116 40.61 23.6276L40.6195 23.1277C43.3534 23.1794 46.0663 23.3141 48.7557 23.5291L48.7159 24.0275C50.4081 24.1628 52.0909 24.33 53.7637 24.5286L53.8227 24.0321C56.5349 24.354 59.2209 24.758 61.8781 25.2413L61.7886 25.7332C63.4578 26.0369 65.1156 26.3719 66.7613 26.7378L66.8698 26.2497C69.5329 26.8418 72.1645 27.5142 74.7616 28.2642L74.6229 28.7446C76.2521 29.215 77.8677 29.7161 79.4689 30.2472L79.6263 29.7726C82.2133 30.6305 84.7629 31.5663 87.2724 32.5771L87.0856 33.0409C88.6579 33.6742 90.2143 34.337 91.7541 35.0287L91.959 34.5726C94.4431 35.6884 96.8842 36.879 99.2792 38.1413L99.0461 38.5837C100.545 39.3736 102.026 40.1919 103.488 41.0375L103.738 40.6047C106.094 41.9679 108.402 43.4022 110.657 44.9045L110.38 45.3207C111.789 46.259 113.177 47.224 114.545 48.2149L114.838 47.8101C117.041 49.4069 119.19 51.0708 121.281 52.7985L120.962 53.184C122.267 54.2619 123.549 55.3648 124.807 56.4919L125.14 56.1194C127.166 57.9336 129.131 59.8102 131.033 61.7462L130.676 62.0965C131.861 63.3033 133.022 64.5333 134.156 65.7856L134.527 65.4499C136.352 67.4634 138.11 69.5345 139.8 71.66L139.408 71.9711C140.46 73.2947 141.485 74.6396 142.482 76.0048L142.886 75.7099C144.488 77.9025 146.018 80.1476 147.474 82.442L147.052 82.7099C147.957 84.1367 148.833 85.5826 149.68 87.0469L150.113 86.7966C151.471 89.1455 152.753 91.5414 153.955 93.9812L153.506 94.2021C154.253 95.717 154.968 97.2489 155.652 98.797L156.11 98.5949C157.205 101.073 158.219 103.593 159.15 106.151L158.68 106.322C159.257 107.909 159.802 109.51 160.314 111.125L160.79 110.974C161.608 113.553 162.341 116.168 162.986 118.815L162.501 118.934C162.9 120.572 163.266 122.223 163.598 123.886L164.088 123.788C164.617 126.437 165.059 129.117 165.412 131.824L164.916 131.888C165.133 133.559 165.317 135.239 165.465 136.93L165.963 136.886Z" stroke="#6B6B6B" stroke-dasharray="5 8"/>
<path d="M103.299 147.573C103.299 182.485 74.1074 210.812 38.0654 210.812C2.02337 210.812 -27.168 182.485 -27.168 147.573C-27.168 112.661 2.02337 84.334 38.0654 84.334C74.1074 84.334 103.299 112.661 103.299 147.573Z" stroke="#6B6B6B"/>
<path d="M150.732 24.1049L140.404 13.7474V34.4435H139.37V13.7474L129.041 24.1049L128.311 23.372L139.887 11.7637L151.463 23.3722L150.732 24.1049Z" fill="#6B6B6B"/>
<path d="M240.274 106.177L228.558 94.428V117.905H227.386V94.428L215.669 106.177L214.84 105.346L227.972 92.1777L241.104 105.346L240.274 106.177Z" fill="#6B6B6B"/>
<path d="M202.729 40.3476C202.391 39.831 201.714 38.9567 200.569 38.2811C200.051 37.9731 199.085 37.3968 197.781 37.3869C195.63 37.367 194.187 38.8673 193.918 39.1554C192.245 40.904 192.285 43.0798 192.295 43.5667C192.295 43.8747 192.345 45.1861 193.121 46.6168C193.54 47.4017 194.037 47.9581 194.406 48.3158C197.194 50.7996 199.981 53.2735 202.779 55.7573C205.318 53.4921 207.857 51.2268 210.396 48.9616C210.884 48.4648 211.571 47.66 212.108 46.4976C212.447 45.7723 212.954 44.6695 212.915 43.1792C212.895 42.5831 212.835 40.9636 211.63 39.4833C211.332 39.1256 210.266 37.8439 208.355 37.5061C207.727 37.3968 206.353 37.2578 204.92 38.0426C203.546 38.7977 202.938 39.9502 202.739 40.3576L202.729 40.3476Z" stroke="#6B6B6B" stroke-width="1.5" stroke-linejoin="round"/>
<path d="M192.457 150.407C192.011 149.726 191.118 148.574 189.609 147.683C188.926 147.277 187.653 146.517 185.934 146.504C183.099 146.478 181.196 148.456 180.841 148.835C178.636 151.141 178.689 154.009 178.702 154.651C178.702 155.057 178.768 156.786 179.791 158.672C180.343 159.706 180.999 160.44 181.485 160.911C185.16 164.185 188.835 167.447 192.523 170.721C195.869 167.735 199.216 164.749 202.563 161.762C203.206 161.108 204.112 160.047 204.821 158.514C205.267 157.558 205.936 156.104 205.884 154.14C205.858 153.354 205.779 151.219 204.191 149.268C203.797 148.796 202.393 147.107 199.873 146.661C199.046 146.517 197.234 146.334 195.344 147.369C193.533 148.364 192.733 149.883 192.47 150.42L192.457 150.407Z" stroke="#6B6B6B" stroke-width="1.5" stroke-linejoin="round"/>
</g>
<defs>
<clipPath id="clip0_473_4136">
<rect width="289" height="162" fill="white" transform="translate(0.289062 0.132812)"/>
</clipPath>
</defs>
</svg>
