<svg width="314" height="413" viewBox="0 0 314 413" fill="none" xmlns="http://www.w3.org/2000/svg">
<path d="M172.487 82.3675L153.239 63.2429V101.457H151.313V63.2429L132.065 82.3675L130.703 81.0143L152.276 59.5801L173.849 81.0146L172.487 82.3675Z" fill="#07F2B4"/>
<path d="M246.089 23.3596L226.841 4.23512V42.4495H224.915V4.23512L205.667 23.3596L204.305 22.0065L225.878 0.572266L247.451 22.0068L246.089 23.3596Z" fill="#07F2B4"/>
<path d="M70.9718 60.1604L51.7237 41.0359V79.2502H49.7978V41.0359L30.5494 60.1604L29.1875 58.8073L50.7607 37.373L72.3337 58.8075L70.9718 60.1604Z" fill="#07F2B4"/>
<path d="M190.223 227.628C190.223 227.398 190.186 227.194 190.114 227.018C190.046 226.837 189.924 226.674 189.748 226.529C189.576 226.384 189.336 226.246 189.028 226.115C188.725 225.984 188.341 225.85 187.875 225.715C187.386 225.57 186.945 225.409 186.551 225.233C186.158 225.052 185.821 224.846 185.54 224.615C185.26 224.385 185.045 224.12 184.895 223.821C184.746 223.523 184.672 223.181 184.672 222.797C184.672 222.412 184.751 222.057 184.909 221.731C185.067 221.406 185.294 221.123 185.588 220.883C185.886 220.639 186.241 220.449 186.653 220.313C187.065 220.177 187.524 220.109 188.031 220.109C188.773 220.109 189.401 220.252 189.917 220.537C190.437 220.817 190.833 221.186 191.105 221.643C191.376 222.095 191.512 222.58 191.512 223.095H190.209C190.209 222.724 190.13 222.396 189.972 222.111C189.813 221.822 189.573 221.596 189.252 221.433C188.931 221.265 188.524 221.182 188.031 221.182C187.565 221.182 187.18 221.252 186.877 221.392C186.574 221.532 186.348 221.722 186.198 221.962C186.054 222.202 185.981 222.475 185.981 222.783C185.981 222.991 186.024 223.181 186.11 223.353C186.201 223.521 186.339 223.677 186.524 223.821C186.714 223.966 186.954 224.1 187.243 224.222C187.538 224.344 187.888 224.462 188.295 224.575C188.856 224.733 189.34 224.909 189.748 225.104C190.155 225.299 190.49 225.518 190.752 225.762C191.019 226.002 191.216 226.276 191.342 226.583C191.474 226.886 191.539 227.23 191.539 227.615C191.539 228.017 191.458 228.382 191.295 228.707C191.132 229.033 190.899 229.311 190.596 229.542C190.293 229.773 189.929 229.952 189.503 230.078C189.083 230.2 188.612 230.261 188.092 230.261C187.635 230.261 187.185 230.198 186.741 230.071C186.302 229.945 185.902 229.755 185.54 229.501C185.183 229.248 184.895 228.936 184.678 228.565C184.466 228.189 184.359 227.755 184.359 227.262H185.662C185.662 227.601 185.728 227.893 185.859 228.137C185.99 228.377 186.169 228.576 186.395 228.735C186.626 228.893 186.886 229.011 187.176 229.087C187.47 229.16 187.775 229.196 188.092 229.196C188.549 229.196 188.935 229.133 189.252 229.006C189.569 228.879 189.809 228.698 189.972 228.463C190.139 228.228 190.223 227.95 190.223 227.628Z" fill="#07F2B4"/>
<path d="M171.851 220.246H173.12L176.357 228.301L179.588 220.246H180.863L176.846 230.127H175.855L171.851 220.246ZM171.438 220.246H172.557L172.74 226.272V230.127H171.438V220.246ZM180.151 220.246H181.271V230.127H179.968V226.272L180.151 220.246Z" fill="#07F2B4"/>
<path d="M164.639 221.122L161.368 230.127H160.031L163.798 220.246H164.659L164.639 221.122ZM167.381 230.127L164.103 221.122L164.083 220.246H164.944L168.724 230.127H167.381ZM167.211 226.469V227.541H161.66V226.469H167.211Z" fill="#07F2B4"/>
<path d="M157.965 229.061V230.127H152.733V229.061H157.965ZM152.997 220.246V230.127H151.688V220.246H152.997ZM157.272 224.494V225.56H152.733V224.494H157.272ZM157.897 220.246V221.318H152.733V220.246H157.897Z" fill="#07F2B4"/>
<path d="M141.727 220.246H144.997C145.739 220.246 146.366 220.359 146.877 220.585C147.393 220.812 147.784 221.146 148.051 221.59C148.323 222.029 148.458 222.569 148.458 223.212C148.458 223.664 148.366 224.078 148.18 224.453C147.999 224.824 147.737 225.141 147.393 225.404C147.054 225.661 146.647 225.854 146.171 225.98L145.805 226.123H142.731L142.717 225.057H145.038C145.509 225.057 145.9 224.976 146.212 224.813C146.524 224.646 146.76 224.422 146.918 224.141C147.076 223.861 147.155 223.551 147.155 223.212C147.155 222.832 147.081 222.499 146.932 222.214C146.782 221.929 146.547 221.71 146.226 221.556C145.909 221.397 145.5 221.318 144.997 221.318H143.036V230.127H141.727V220.246ZM147.502 230.127L145.099 225.648L146.463 225.641L148.9 230.045V230.127H147.502Z" fill="#07F2B4"/>
<path d="M135.708 220.246V230.127H134.419V220.246H135.708ZM138.884 220.246V221.318H131.25V220.246H138.884Z" fill="#07F2B4"/>
<path d="M127.684 227.628C127.684 227.398 127.647 227.194 127.575 227.018C127.507 226.837 127.385 226.674 127.208 226.529C127.037 226.384 126.797 226.246 126.489 226.115C126.186 225.984 125.802 225.85 125.336 225.715C124.847 225.57 124.406 225.409 124.012 225.233C123.619 225.052 123.282 224.846 123.001 224.615C122.721 224.385 122.506 224.12 122.356 223.821C122.207 223.523 122.132 223.181 122.132 222.797C122.132 222.412 122.212 222.057 122.37 221.731C122.528 221.406 122.755 221.123 123.049 220.883C123.347 220.639 123.702 220.449 124.114 220.313C124.526 220.177 124.985 220.109 125.492 220.109C126.234 220.109 126.862 220.252 127.378 220.537C127.898 220.817 128.294 221.186 128.566 221.643C128.837 222.095 128.973 222.58 128.973 223.095H127.67C127.67 222.724 127.591 222.396 127.432 222.111C127.274 221.822 127.034 221.596 126.713 221.433C126.392 221.265 125.985 221.182 125.492 221.182C125.026 221.182 124.641 221.252 124.338 221.392C124.035 221.532 123.809 221.722 123.659 221.962C123.515 222.202 123.442 222.475 123.442 222.783C123.442 222.991 123.485 223.181 123.571 223.353C123.662 223.521 123.8 223.677 123.985 223.821C124.175 223.966 124.415 224.1 124.704 224.222C124.998 224.344 125.349 224.462 125.756 224.575C126.317 224.733 126.801 224.909 127.208 225.104C127.616 225.299 127.95 225.518 128.213 225.762C128.48 226.002 128.677 226.276 128.803 226.583C128.934 226.886 129 227.23 129 227.615C129 228.017 128.919 228.382 128.756 228.707C128.593 229.033 128.36 229.311 128.057 229.542C127.754 229.773 127.389 229.952 126.964 230.078C126.543 230.2 126.073 230.261 125.553 230.261C125.096 230.261 124.646 230.198 124.202 230.071C123.763 229.945 123.363 229.755 123.001 229.501C122.644 229.248 122.356 228.936 122.139 228.565C121.927 228.189 121.82 227.755 121.82 227.262H123.123C123.123 227.601 123.189 227.893 123.32 228.137C123.451 228.377 123.63 228.576 123.856 228.735C124.087 228.893 124.347 229.011 124.637 229.087C124.931 229.16 125.236 229.196 125.553 229.196C126.01 229.196 126.396 229.133 126.713 229.006C127.03 228.879 127.27 228.698 127.432 228.463C127.6 228.228 127.684 227.95 127.684 227.628Z" fill="#07F2B4"/>
<path d="M61.6947 197.535L62.3527 198.804C62.7063 199.486 62.9437 200.093 63.0648 200.625C63.1859 201.157 63.2062 201.625 63.1257 202.029C63.0452 202.434 62.8766 202.785 62.6199 203.082C62.3649 203.374 62.0355 203.625 61.6315 203.834C61.3114 204 60.9953 204.113 60.6832 204.173C60.3712 204.234 60.0611 204.232 59.753 204.17C59.4467 204.101 59.1432 203.964 58.8426 203.757C58.542 203.55 58.246 203.263 57.9545 202.897C57.6631 202.531 57.3761 202.075 57.0935 201.53L56.4356 200.261C56.0819 199.579 55.8465 198.976 55.7294 198.451C55.6161 197.925 55.6016 197.464 55.6861 197.067C55.7685 196.666 55.9382 196.322 56.1951 196.034C56.4558 195.744 56.7862 195.496 57.1864 195.288C57.5103 195.12 57.8283 195.006 58.1404 194.946C58.4543 194.88 58.7624 194.877 59.0647 194.938C59.3651 194.995 59.6626 195.126 59.9575 195.331C60.2542 195.53 60.5472 195.811 60.8367 196.173C61.1262 196.536 61.4122 196.99 61.6947 197.535ZM61.3783 199.526L60.5396 197.909C60.3459 197.535 60.1532 197.219 59.9612 196.961C59.7711 196.697 59.5818 196.486 59.3932 196.327C59.2047 196.169 59.013 196.06 58.8182 196.001C58.6273 195.941 58.4331 195.925 58.2358 195.955C58.0403 195.979 57.8397 196.045 57.6339 196.151C57.3824 196.282 57.1841 196.445 57.0391 196.641C56.8922 196.833 56.8044 197.065 56.7757 197.336C56.7509 197.605 56.7891 197.921 56.8904 198.285C56.9918 198.648 57.1639 199.064 57.407 199.533L58.2457 201.151C58.4393 201.524 58.6312 201.843 58.8213 202.107C59.0152 202.369 59.2103 202.582 59.4067 202.746C59.601 202.907 59.7956 203.021 59.9906 203.089C60.1855 203.157 60.3817 203.181 60.5791 203.161C60.7784 203.135 60.9791 203.07 61.181 202.965C61.4402 202.831 61.6413 202.664 61.7842 202.464C61.9272 202.264 62.0092 202.026 62.0301 201.749C62.0528 201.466 62.0106 201.142 61.9035 200.777C61.7944 200.408 61.6194 199.991 61.3783 199.526Z" fill="#07F2B4"/>
<path d="M168.25 166.918L168.515 176.289L167.273 176.325L167.008 166.953L168.25 166.918ZM173.908 166.758L170.137 171.238L168.013 173.572L167.77 172.252L169.366 170.391L172.414 166.8L173.908 166.758ZM172.976 176.163L169.377 171.691L170.09 170.686L174.456 176.121L172.976 176.163Z" fill="#07F2B4"/>
<path d="M165.271 170.945L165.312 172.374C165.333 173.142 165.283 173.792 165.161 174.324C165.038 174.855 164.853 175.286 164.605 175.615C164.356 175.944 164.052 176.187 163.691 176.343C163.335 176.495 162.929 176.577 162.474 176.59C162.114 176.6 161.78 176.564 161.473 176.483C161.166 176.401 160.887 176.266 160.637 176.075C160.391 175.88 160.177 175.624 159.997 175.307C159.816 174.99 159.674 174.604 159.571 174.147C159.468 173.69 159.407 173.155 159.39 172.542L159.35 171.113C159.328 170.345 159.378 169.699 159.501 169.176C159.628 168.653 159.815 168.231 160.064 167.91C160.313 167.586 160.615 167.349 160.972 167.202C161.332 167.054 161.738 166.974 162.189 166.961C162.553 166.951 162.889 166.987 163.197 167.068C163.508 167.145 163.787 167.277 164.032 167.463C164.278 167.645 164.489 167.892 164.665 168.205C164.846 168.514 164.988 168.894 165.091 169.346C165.194 169.799 165.254 170.331 165.271 170.945ZM164.12 172.601L164.068 170.779C164.056 170.359 164.02 169.991 163.96 169.675C163.903 169.354 163.825 169.081 163.724 168.857C163.623 168.632 163.498 168.451 163.348 168.313C163.202 168.176 163.034 168.077 162.843 168.018C162.657 167.955 162.448 167.927 162.216 167.933C161.933 167.941 161.684 168.002 161.468 168.115C161.252 168.225 161.072 168.395 160.928 168.627C160.789 168.858 160.686 169.16 160.619 169.531C160.552 169.902 160.526 170.352 160.541 170.879L160.593 172.701C160.605 173.121 160.639 173.492 160.695 173.812C160.756 174.133 160.839 174.41 160.944 174.643C161.049 174.872 161.175 175.059 161.321 175.205C161.467 175.352 161.633 175.459 161.819 175.526C162.01 175.59 162.219 175.618 162.447 175.612C162.738 175.603 162.992 175.54 163.208 175.422C163.423 175.305 163.601 175.126 163.74 174.886C163.883 174.641 163.986 174.331 164.049 173.956C164.111 173.576 164.135 173.124 164.12 172.601Z" fill="#07F2B4"/>
<path d="M157.865 171.154L157.905 172.583C157.927 173.351 157.877 174.001 157.754 174.533C157.632 175.064 157.447 175.495 157.198 175.824C156.95 176.153 156.646 176.396 156.285 176.552C155.928 176.704 155.523 176.786 155.068 176.799C154.708 176.809 154.374 176.773 154.067 176.692C153.759 176.61 153.481 176.474 153.23 176.284C152.984 176.089 152.771 175.833 152.59 175.516C152.41 175.199 152.268 174.813 152.165 174.356C152.061 173.899 152.001 173.364 151.984 172.751L151.943 171.322C151.922 170.554 151.972 169.908 152.095 169.385C152.222 168.862 152.409 168.44 152.658 168.119C152.906 167.795 153.209 167.558 153.565 167.411C153.926 167.263 154.332 167.183 154.782 167.17C155.147 167.16 155.483 167.195 155.79 167.277C156.102 167.354 156.38 167.486 156.626 167.672C156.872 167.854 157.083 168.101 157.259 168.414C157.44 168.723 157.581 169.103 157.684 169.555C157.787 170.008 157.848 170.54 157.865 171.154ZM156.714 172.81L156.662 170.988C156.65 170.568 156.614 170.2 156.553 169.884C156.497 169.563 156.419 169.29 156.318 169.066C156.217 168.841 156.092 168.66 155.942 168.522C155.796 168.385 155.628 168.286 155.437 168.227C155.251 168.164 155.042 168.136 154.81 168.142C154.527 168.15 154.277 168.211 154.061 168.324C153.846 168.434 153.666 168.604 153.522 168.836C153.383 169.067 153.279 169.369 153.213 169.74C153.146 170.111 153.12 170.561 153.135 171.088L153.186 172.91C153.198 173.33 153.232 173.701 153.289 174.021C153.349 174.342 153.432 174.619 153.538 174.852C153.643 175.081 153.769 175.268 153.914 175.414C154.06 175.561 154.226 175.667 154.413 175.735C154.604 175.799 154.813 175.827 155.04 175.821C155.332 175.812 155.586 175.749 155.802 175.631C156.017 175.514 156.195 175.335 156.334 175.095C156.477 174.85 156.58 174.54 156.642 174.165C156.705 173.785 156.728 173.333 156.714 172.81Z" fill="#07F2B4"/>
<path d="M146.097 172.46L145.137 172.243L145.475 167.563L150.283 167.427L150.314 168.527L146.517 168.635L146.306 171.192C146.475 171.088 146.689 170.99 146.948 170.897C147.212 170.803 147.515 170.752 147.858 170.742C148.292 170.73 148.682 170.794 149.03 170.934C149.377 171.071 149.675 171.273 149.923 171.54C150.175 171.808 150.371 172.133 150.511 172.516C150.651 172.898 150.727 173.328 150.741 173.804C150.753 174.255 150.703 174.67 150.589 175.052C150.48 175.433 150.307 175.768 150.07 176.058C149.833 176.344 149.531 176.569 149.162 176.735C148.797 176.899 148.364 176.989 147.862 177.003C147.484 177.014 147.124 176.973 146.782 176.879C146.445 176.781 146.14 176.629 145.868 176.422C145.6 176.211 145.377 175.946 145.201 175.629C145.029 175.308 144.915 174.929 144.86 174.492L145.992 174.46C146.054 174.811 146.165 175.104 146.327 175.34C146.488 175.576 146.695 175.752 146.947 175.87C147.204 175.983 147.499 176.034 147.834 176.025C148.117 176.017 148.367 175.96 148.583 175.856C148.799 175.751 148.979 175.604 149.124 175.415C149.269 175.226 149.377 175 149.447 174.736C149.521 174.472 149.553 174.177 149.544 173.851C149.535 173.555 149.487 173.281 149.398 173.03C149.31 172.779 149.181 172.562 149.013 172.378C148.848 172.193 148.649 172.053 148.414 171.957C148.18 171.856 147.912 171.81 147.612 171.818C147.213 171.83 146.912 171.892 146.709 172.005C146.51 172.118 146.306 172.27 146.097 172.46Z" fill="#07F2B4"/>
<path d="M200.789 204.316C194.846 202.555 188.719 201.258 182.016 200.343L183.826 187.117L181.978 186.864L180.167 200.102C174.052 199.343 167.444 198.886 160.058 198.674V185.865H158.193V198.687C150.31 198.962 143.221 199.51 136.563 200.401L134.748 187.134L132.9 187.387L134.716 200.658C127.581 201.694 120.912 203.14 114.242 205.085L110.131 192.867L108.363 193.462L112.454 205.618C106.409 207.461 100.33 209.719 93.8703 212.457L87.7249 200.419L86.064 201.267L92.1521 213.193C86.2124 215.762 79.9325 218.733 73.0517 222.156L66.3105 211.112L64.7188 212.083L71.7872 223.663L72.271 224.63C106.054 207.712 125.027 201.6 159.259 200.518C176.495 200.971 189.378 202.733 201.551 206.495C213.735 210.261 225.254 216.044 239.752 224.599L239.757 224.591L240.494 225.138L249.855 212.512L248.357 211.401L240.048 222.609C233.641 218.842 227.789 215.606 222.178 212.842L228.233 200.982L226.572 200.134L220.501 212.027C214.411 209.105 208.572 206.742 202.573 204.86L206.657 192.723L204.89 192.128L200.789 204.316Z" fill="#07F2B4"/>
<path fill-rule="evenodd" clip-rule="evenodd" d="M222.226 227.467C224.069 225.797 226.916 225.937 228.586 227.779C230.256 229.622 230.116 232.469 228.274 234.139L160.991 295.124C159.148 296.794 156.301 296.654 154.631 294.811C152.961 292.969 153.101 290.122 154.943 288.452L222.226 227.467ZM226.894 229.313C226.071 228.406 224.668 228.337 223.761 229.16L156.477 290.144C155.569 290.967 155.501 292.37 156.323 293.277C157.146 294.185 158.549 294.254 159.457 293.431L226.74 232.447C227.648 231.624 227.716 230.221 226.894 229.313Z" fill="#07F2B4"/>
<path fill-rule="evenodd" clip-rule="evenodd" d="M166.652 278.917C164.229 277.05 161.234 275.947 157.992 275.947C149.932 275.947 143.398 282.765 143.398 291.175C143.398 299.586 149.932 306.403 157.992 306.403C166.052 306.403 172.586 299.586 172.586 291.175C172.586 288.886 172.101 286.715 171.234 284.767L169.277 286.541C169.807 287.971 170.099 289.533 170.099 291.175C170.099 298.313 164.58 303.917 157.992 303.917C151.404 303.917 145.885 298.313 145.885 291.175C145.885 284.038 151.404 278.434 157.992 278.434C160.485 278.434 162.825 279.236 164.771 280.621L166.652 278.917Z" fill="#07F2B4"/>
<path fill-rule="evenodd" clip-rule="evenodd" d="M166.652 278.917C164.229 277.05 161.234 275.947 157.992 275.947C149.932 275.947 143.398 282.765 143.398 291.175C143.398 299.586 149.932 306.403 157.992 306.403C166.052 306.403 172.586 299.586 172.586 291.175C172.586 288.886 172.101 286.715 171.234 284.767L169.277 286.541C169.807 287.971 170.099 289.533 170.099 291.175C170.099 298.313 164.58 303.917 157.992 303.917C151.404 303.917 145.885 298.313 145.885 291.175C145.885 284.038 151.404 278.434 157.992 278.434C160.485 278.434 162.825 279.236 164.771 280.621L166.652 278.917Z" fill="#07F2B4"/>
<path fill-rule="evenodd" clip-rule="evenodd" d="M166.652 278.917C164.229 277.05 161.234 275.947 157.992 275.947C149.932 275.947 143.398 282.765 143.398 291.175C143.398 299.586 149.932 306.403 157.992 306.403C166.052 306.403 172.586 299.586 172.586 291.175C172.586 288.886 172.101 286.715 171.234 284.767L169.277 286.541C169.807 287.971 170.099 289.533 170.099 291.175C170.099 298.313 164.58 303.917 157.992 303.917C151.404 303.917 145.885 298.313 145.885 291.175C145.885 284.038 151.404 278.434 157.992 278.434C160.485 278.434 162.825 279.236 164.771 280.621L166.652 278.917Z" fill="#07F2B4"/>
<path fill-rule="evenodd" clip-rule="evenodd" d="M254.185 192.782L254.896 197.415C254.941 197.708 254.839 198.004 254.623 198.207L251.209 201.415L255.832 202.173C256.124 202.221 256.375 202.41 256.501 202.678L258.488 206.908L260.637 202.746C260.773 202.483 261.03 202.304 261.324 202.266L265.975 201.68L262.68 198.352C262.472 198.142 262.38 197.842 262.436 197.551L263.312 192.949L259.126 195.053C258.862 195.186 258.548 195.18 258.289 195.038L254.185 192.782ZM266.372 202.082C266.372 202.082 266.372 202.082 266.372 202.081L266.372 202.082ZM252.952 191.019C253.427 190.687 254.049 190.653 254.557 190.932L258.741 193.232L263.007 191.088C263.525 190.828 264.145 190.884 264.607 191.233L264.065 191.951L264.607 191.233C265.07 191.582 265.294 192.163 265.185 192.732L264.292 197.423L267.651 200.816C268.059 201.227 268.197 201.835 268.008 202.383C267.819 202.93 267.335 203.323 266.76 203.396L262.019 203.993L259.828 208.236C259.562 208.751 259.027 209.07 258.448 209.059C257.869 209.048 257.346 208.709 257.099 208.185L255.073 203.873L250.361 203.1C249.79 203.006 249.321 202.596 249.152 202.042L250.013 201.78L249.152 202.042C248.983 201.488 249.143 200.886 249.566 200.49L253.045 197.22L252.32 192.497L253.21 192.36L252.32 192.497C252.232 191.924 252.477 191.351 252.952 191.019Z" fill="#07F2B4"/>
<path fill-rule="evenodd" clip-rule="evenodd" d="M122.326 2.17623C122.326 1.60752 122.787 1.14648 123.355 1.14648H133.078C133.647 1.14648 134.108 1.60752 134.108 2.17623C134.108 2.74494 133.647 3.20597 133.078 3.20597H124.385V33.6602C124.386 33.6986 124.386 33.737 124.386 33.7754C124.386 34.8682 124.171 35.9504 123.753 36.96C123.334 37.9697 122.721 38.8871 121.949 39.6599C121.176 40.4327 120.258 41.0456 119.249 41.4639C118.239 41.8821 117.157 42.0973 116.064 42.0973C114.971 42.0973 113.889 41.8821 112.879 41.4639C111.87 41.0456 110.952 40.4327 110.179 39.6599C109.407 38.8871 108.794 37.9697 108.376 36.96C107.957 35.9504 107.742 34.8682 107.742 33.7754C107.742 32.6825 107.957 31.6004 108.376 30.5907C108.794 29.581 109.407 28.6636 110.179 27.8908C110.952 27.1181 111.87 26.5051 112.879 26.0869C113.889 25.6687 114.971 25.4534 116.064 25.4534C117.157 25.4534 118.239 25.6687 119.249 26.0869C120.258 26.5051 121.176 27.1181 121.949 27.8908C122.079 28.0212 122.205 28.1556 122.326 28.2939V2.17623ZM122.326 33.7759V33.6754C122.313 32.8871 122.152 32.1078 121.85 31.3788C121.535 30.619 121.074 29.9286 120.492 29.3471C119.911 28.7656 119.22 28.3043 118.461 27.9896C117.701 27.6749 116.886 27.5129 116.064 27.5129C115.242 27.5129 114.427 27.6749 113.667 27.9896C112.908 28.3043 112.217 28.7656 111.636 29.3471C111.054 29.9286 110.593 30.619 110.278 31.3788C109.964 32.1386 109.802 32.953 109.802 33.7754C109.802 34.5978 109.964 35.4121 110.278 36.1719C110.593 36.9317 111.054 37.6221 111.636 38.2036C112.217 38.7851 112.908 39.2464 113.667 39.5611C114.427 39.8759 115.242 40.0378 116.064 40.0378C116.886 40.0378 117.701 39.8759 118.461 39.5611C119.22 39.2464 119.911 38.7851 120.492 38.2036C121.074 37.6221 121.535 36.9317 121.85 36.1719C122.16 35.4239 122.321 34.623 122.326 33.8136L122.326 33.7946L122.326 33.7759ZM89.3501 3.57792C88.7813 3.57792 88.3203 4.03895 88.3203 4.60766C88.3203 5.17637 88.7813 5.6374 89.3501 5.6374H113.657C114.226 5.6374 114.687 5.17637 114.687 4.60766C114.687 4.03895 114.226 3.57792 113.657 3.57792H89.3501ZM88.3203 14.3284C88.3203 13.7597 88.7813 13.2987 89.3501 13.2987H113.657C114.226 13.2987 114.687 13.7597 114.687 14.3284C114.687 14.8972 114.226 15.3582 113.657 15.3582H89.3501C88.7813 15.3582 88.3203 14.8972 88.3203 14.3284ZM89.3501 23.0244C88.7813 23.0244 88.3203 23.4855 88.3203 24.0542C88.3203 24.6229 88.7813 25.0839 89.3501 25.0839H103.935C104.503 25.0839 104.964 24.6229 104.964 24.0542C104.964 23.4855 104.503 23.0244 103.935 23.0244H89.3501Z" fill="#07F2B4"/>
<path fill-rule="evenodd" clip-rule="evenodd" d="M281.459 67.5922C281.459 67.0235 281.92 66.5625 282.488 66.5625H292.211C292.78 66.5625 293.241 67.0235 293.241 67.5922C293.241 68.161 292.78 68.622 292.211 68.622H283.518V99.0762C283.519 99.1146 283.519 99.153 283.519 99.1914C283.519 100.284 283.304 101.366 282.885 102.376C282.467 103.386 281.854 104.303 281.081 105.076C280.309 105.849 279.391 106.462 278.382 106.88C277.372 107.298 276.29 107.513 275.197 107.513C274.104 107.513 273.022 107.298 272.012 106.88C271.002 106.462 270.085 105.849 269.312 105.076C268.54 104.303 267.927 103.386 267.508 102.376C267.09 101.366 266.875 100.284 266.875 99.1914C266.875 98.0985 267.09 97.0164 267.508 96.0067C267.927 94.997 268.54 94.0796 269.312 93.3069C270.085 92.5341 271.002 91.9211 272.012 91.5029C273.022 91.0847 274.104 90.8694 275.197 90.8694C276.29 90.8694 277.372 91.0847 278.382 91.5029C279.391 91.9211 280.309 92.5341 281.081 93.3069C281.212 93.4372 281.337 93.5716 281.459 93.7099V67.5922ZM281.459 99.1919V99.0914C281.446 98.3031 281.285 97.5238 280.983 96.7948C280.668 96.035 280.207 95.3447 279.625 94.7631C279.044 94.1816 278.353 93.7203 277.593 93.4056C276.834 93.0909 276.019 92.9289 275.197 92.9289C274.374 92.9289 273.56 93.0909 272.8 93.4056C272.04 93.7203 271.35 94.1816 270.769 94.7631C270.187 95.3447 269.726 96.035 269.411 96.7948C269.096 97.5546 268.934 98.369 268.934 99.1914C268.934 100.014 269.096 100.828 269.411 101.588C269.726 102.348 270.187 103.038 270.769 103.62C271.35 104.201 272.04 104.662 272.8 104.977C273.56 105.292 274.374 105.454 275.197 105.454C276.019 105.454 276.834 105.292 277.593 104.977C278.353 104.662 279.044 104.201 279.625 103.62C280.207 103.038 280.668 102.348 280.983 101.588C281.292 100.84 281.454 100.039 281.459 99.2297C281.459 99.2171 281.459 99.2045 281.459 99.1919ZM248.483 68.9939C247.914 68.9939 247.453 69.455 247.453 70.0237C247.453 70.5924 247.914 71.0534 248.483 71.0534H272.79C273.359 71.0534 273.82 70.5924 273.82 70.0237C273.82 69.455 273.359 68.9939 272.79 68.9939H248.483ZM247.453 79.7445C247.453 79.1757 247.914 78.7147 248.483 78.7147H272.79C273.359 78.7147 273.82 79.1757 273.82 79.7445C273.82 80.3132 273.359 80.7742 272.79 80.7742H248.483C247.914 80.7742 247.453 80.3132 247.453 79.7445ZM248.483 88.4405C247.914 88.4405 247.453 88.9015 247.453 89.4702C247.453 90.0389 247.914 90.4999 248.483 90.4999H263.067C263.636 90.4999 264.097 90.0389 264.097 89.4702C264.097 88.9015 263.636 88.4405 263.067 88.4405H248.483Z" fill="#07F2B4"/>
<path fill-rule="evenodd" clip-rule="evenodd" d="M87.8156 141.433C87.8156 156.992 75.2026 169.605 59.6436 169.605C44.0847 169.605 31.4717 156.992 31.4717 141.433C31.4717 125.874 44.0847 113.261 59.6436 113.261C75.2026 113.261 87.8156 125.874 87.8156 141.433ZM90.0998 141.433C90.0998 158.253 76.4641 171.889 59.6436 171.889C42.8232 171.889 29.1875 158.253 29.1875 141.433C29.1875 124.612 42.8232 110.977 59.6436 110.977C76.4641 110.977 90.0998 124.612 90.0998 141.433ZM41.5604 133.009C45.0417 131.985 51.1719 130.923 58.1152 131.12C65.0586 131.318 72.728 132.773 79.3606 136.703L80.5251 134.738C73.4524 130.547 65.365 129.041 58.1801 128.837C50.9951 128.632 44.6256 129.727 40.9159 130.818L41.5604 133.009ZM42.8294 143.162C49.906 141.081 63.2429 138.856 75.5134 146.831L76.7583 144.916C63.6486 136.395 49.4904 138.822 42.1849 140.971L42.8294 143.162ZM44.7718 152.033C47.4833 151.129 52.1008 150.352 57.1274 150.584C62.1551 150.816 67.4652 152.052 71.665 155.052L72.9926 153.193C68.3093 149.848 62.5156 148.546 57.2327 148.302C51.9486 148.058 47.0486 148.867 44.0495 149.866L44.7718 152.033Z" fill="#07F2B4"/>
<path fill-rule="evenodd" clip-rule="evenodd" d="M88.6645 136.262L88.2154 135.472C88.118 135.003 88.0093 134.537 87.8897 134.076C90.4161 132.65 92.9912 131.3 95.6118 130.029L96.6085 132.085C93.9103 133.393 91.2612 134.787 88.6645 136.262ZM296.869 260.847C296.918 259.329 296.942 257.805 296.942 256.276C296.942 254.746 296.918 253.223 296.869 251.705L294.586 251.778C294.634 253.271 294.658 254.771 294.658 256.276C294.658 257.781 294.634 259.28 294.586 260.774L296.869 260.847ZM296.404 268.651L294.128 268.452C293.866 271.449 293.509 274.418 293.058 277.356L295.316 277.702C295.774 274.715 296.138 271.697 296.404 268.651ZM293.914 285.398L291.679 284.926C291.058 287.867 290.343 290.774 289.538 293.643L291.737 294.26C292.556 291.344 293.283 288.388 293.914 285.398ZM289.413 301.726L287.252 300.986C286.28 303.825 285.218 306.621 284.069 309.373L286.177 310.253C287.345 307.455 288.425 304.612 289.413 301.726ZM282.964 317.381L280.909 316.385C279.6 319.083 278.206 321.732 276.731 324.329L278.717 325.457C280.217 322.818 281.634 320.124 282.964 317.381ZM274.665 332.146L272.745 330.908C271.122 333.426 269.42 335.887 267.641 338.289L269.477 339.648C271.285 337.207 273.015 334.705 274.665 332.146ZM264.65 345.801L262.893 344.341C260.98 346.644 258.994 348.884 256.939 351.057L258.598 352.627C260.688 350.418 262.706 348.142 264.65 345.801ZM253.068 358.156L251.499 356.497C249.326 358.553 247.086 360.539 244.783 362.451L246.242 364.209C248.583 362.265 250.86 360.246 253.068 358.156ZM240.089 369.035L238.73 367.2C236.328 368.978 233.867 370.681 231.349 372.304L232.587 374.224C235.146 372.574 237.648 370.843 240.089 369.035ZM225.899 378.275L224.77 376.289C222.173 377.765 219.524 379.159 216.826 380.467L217.823 382.522C220.566 381.192 223.259 379.775 225.899 378.275ZM210.694 385.736L209.814 383.628C207.063 384.776 204.266 385.838 201.427 386.81L202.167 388.971C205.053 387.983 207.897 386.903 210.694 385.736ZM194.702 391.296L194.084 389.096C191.215 389.902 188.309 390.617 185.368 391.238L185.84 393.473C188.83 392.841 191.785 392.114 194.702 391.296ZM178.144 394.874L177.797 392.617C174.859 393.067 171.89 393.425 168.893 393.687L169.092 395.962C172.138 395.696 175.156 395.332 178.144 394.874ZM161.288 396.428L161.215 394.145C159.722 394.193 158.222 394.217 156.717 394.217C155.212 394.217 153.713 394.193 152.219 394.145L152.146 396.428C153.664 396.477 155.188 396.501 156.717 396.501C158.247 396.501 159.771 396.477 161.288 396.428ZM144.342 395.962L144.541 393.687C141.545 393.425 138.576 393.067 135.637 392.617L135.291 394.874C138.278 395.332 141.296 395.696 144.342 395.962ZM127.595 393.473L128.067 391.238C125.126 390.617 122.219 389.902 119.35 389.096L118.733 391.296C121.65 392.114 124.605 392.841 127.595 393.473ZM111.267 388.971L112.007 386.81C109.169 385.838 106.372 384.776 103.62 383.628L102.74 385.736C105.538 386.903 108.381 387.983 111.267 388.971ZM95.6118 382.522L96.6084 380.467C93.9103 379.159 91.2611 377.765 88.6645 376.289L87.5359 378.275C90.1756 379.775 92.8688 381.192 95.6118 382.522ZM80.8477 374.224L82.0853 372.304C79.5677 370.681 77.1063 368.978 74.7046 367.2L73.3451 369.035C75.7864 370.843 78.2885 372.574 80.8477 374.224ZM67.1927 364.209L68.652 362.451C66.3489 360.539 64.109 358.553 61.936 356.497L60.3662 358.156C62.575 360.246 64.8517 362.265 67.1927 364.209ZM54.8368 352.627L56.4961 351.057C54.4403 348.884 52.4543 346.644 50.5419 344.341L48.7846 345.8C50.7285 348.141 52.7471 350.418 54.8368 352.627ZM43.9579 339.648L45.7935 338.289C44.0148 335.887 42.3123 333.426 40.6895 330.908L38.7696 332.145C40.4192 334.705 42.1499 337.207 43.9579 339.648ZM34.7179 325.457L36.7038 324.329C35.2282 321.732 33.8344 319.083 32.5261 316.385L30.4708 317.381C31.8009 320.124 33.2178 322.818 34.7179 325.457ZM27.2575 310.253L29.3654 309.373C28.2169 306.621 27.1549 303.825 26.1829 300.986L24.0219 301.726C25.0101 304.612 26.0898 307.455 27.2575 310.253ZM21.6976 294.26L23.8968 293.643C23.0914 290.774 22.3764 287.867 21.7552 284.926L19.5203 285.398C20.1519 288.388 20.8788 291.344 21.6976 294.26ZM18.1188 277.702L20.3766 277.356C19.9261 274.418 19.5683 271.449 19.3063 268.452L17.0308 268.651C17.2971 271.697 17.6608 274.715 18.1188 277.702ZM16.5653 260.847C16.5167 259.329 16.4922 257.805 16.4922 256.276C16.4922 254.746 16.5167 253.223 16.5653 251.705L18.8483 251.778C18.8005 253.271 18.7764 254.771 18.7764 256.276C18.7764 257.781 18.8005 259.28 18.8483 260.774L16.5653 260.847ZM17.0308 243.901L19.3063 244.1C19.5683 241.103 19.9261 238.134 20.3766 235.196L18.1188 234.85C17.6608 237.837 17.2971 240.855 17.0308 243.901ZM19.5203 227.154L21.7552 227.626C22.3764 224.684 23.0914 221.778 23.8968 218.909L21.6976 218.292C20.8788 221.208 20.1519 224.163 19.5203 227.154ZM24.0219 210.826L26.1829 211.566C27.1549 208.727 28.2169 205.931 29.3655 203.179L27.2575 202.299C26.0898 205.096 25.0101 207.94 24.0219 210.826ZM30.4708 195.17L32.5261 196.167C33.8345 193.469 35.2282 190.82 36.7039 188.223L34.7179 187.094C33.2178 189.734 31.8009 192.427 30.4708 195.17ZM38.7696 180.406L40.6896 181.644C42.3123 179.126 44.0149 176.665 45.7935 174.263L43.9579 172.904C42.1499 175.345 40.4193 177.847 38.7696 180.406ZM102.74 126.816L103.62 128.924C106.372 127.775 109.169 126.713 112.007 125.742L111.267 123.58C108.381 124.569 105.538 125.648 102.74 126.816ZM118.733 121.256L119.351 123.455C122.219 122.65 125.126 121.935 128.067 121.314L127.595 119.079C124.605 119.71 121.65 120.437 118.733 121.256ZM135.291 117.677L135.637 119.935C138.576 119.485 141.545 119.127 144.541 118.865L144.342 116.589C141.296 116.856 138.278 117.219 135.291 117.677ZM152.146 116.124L152.219 118.407C153.713 118.359 155.212 118.335 156.717 118.335C158.222 118.335 159.722 118.359 161.215 118.407L161.288 116.124C159.771 116.075 158.247 116.051 156.717 116.051C155.188 116.051 153.664 116.075 152.146 116.124ZM169.092 116.589L168.893 118.865C171.89 119.127 174.859 119.485 177.797 119.935L178.144 117.677C175.157 117.219 172.138 116.856 169.092 116.589ZM185.84 119.079L185.368 121.314C188.309 121.935 191.215 122.65 194.084 123.455L194.702 121.256C191.785 120.437 188.83 119.71 185.84 119.079ZM202.168 123.581L201.428 125.742C204.266 126.714 207.063 127.775 209.814 128.924L210.694 126.816C207.897 125.648 205.053 124.569 202.168 123.581ZM217.823 130.029L216.826 132.085C219.524 133.393 222.174 134.787 224.77 136.262L225.899 134.277C223.259 132.776 220.566 131.36 217.823 130.029ZM232.587 138.328L231.349 140.248C233.867 141.871 236.328 143.573 238.73 145.352L240.09 143.517C237.648 141.708 235.146 139.978 232.587 138.328ZM246.242 148.343L244.783 150.101C247.086 152.013 249.326 153.999 251.499 156.055L253.068 154.395C250.86 152.306 248.583 150.287 246.242 148.343ZM258.598 159.925L256.939 161.495C258.994 163.668 260.98 165.908 262.893 168.211L264.65 166.751C262.706 164.41 260.688 162.134 258.598 159.925ZM269.477 172.904L267.641 174.263C269.42 176.665 271.122 179.126 272.745 181.644L274.665 180.406C273.015 177.847 271.285 175.345 269.477 172.904ZM278.717 187.095L276.731 188.223C278.206 190.82 279.6 193.469 280.909 196.167L282.964 195.17C281.634 192.427 280.217 189.734 278.717 187.095ZM286.177 202.299L284.069 203.179C285.218 205.931 286.28 208.727 287.252 211.566L289.413 210.826C288.425 207.94 287.345 205.097 286.177 202.299ZM291.737 218.292L289.538 218.909C290.343 221.778 291.058 224.684 291.679 227.626L293.914 227.154C293.283 224.163 292.556 221.208 291.737 218.292ZM295.316 234.85L293.058 235.196C293.509 238.134 293.866 241.103 294.128 244.1L296.404 243.901C296.138 240.855 295.774 237.837 295.316 234.85Z" fill="#07F2B4"/>
<path fill-rule="evenodd" clip-rule="evenodd" d="M156.722 410.715C242.016 410.715 311.16 341.571 311.16 256.277C311.16 170.983 242.016 101.839 156.722 101.839C129.235 101.839 103.424 109.02 81.065 121.609C80.5277 121.028 79.967 120.47 79.3846 119.934C102.204 106.963 128.598 99.5547 156.722 99.5547C243.278 99.5547 313.444 169.722 313.444 256.277C313.444 342.832 243.278 412.999 156.722 412.999C70.1669 412.999 0 342.832 0 256.277C0 218.76 13.1827 184.322 35.1686 157.342C35.6007 158.005 36.059 158.65 36.5421 159.274C15.1157 185.787 2.28421 219.534 2.28421 256.277C2.28421 341.571 71.4285 410.715 156.722 410.715Z" fill="#07F2B4"/>
</svg>
