<svg width="243" height="230" viewBox="0 0 243 230" fill="none" xmlns="http://www.w3.org/2000/svg">
<path d="M214.27 198.543L213.907 162.14M60.6934 123.76V203.107C60.6934 209.041 65.4906 213.847 71.4149 213.847H195.335" stroke="#07F2B4" stroke-width="2" stroke-linejoin="round"/>
<path d="M154.885 183.295L195.017 183.295M61.6328 183.295L120.869 183.295" stroke="#07F2B4" stroke-width="2" stroke-dasharray="8.54 8.54"/>
<path d="M220.788 147.333C220.318 146.613 219.378 145.395 217.788 144.453C217.07 144.024 215.729 143.221 213.919 143.207C210.934 143.18 208.93 145.27 208.556 145.671C206.235 148.108 206.29 151.139 206.304 151.818C206.304 152.247 206.373 154.074 207.451 156.068C208.031 157.161 208.722 157.936 209.234 158.435C213.103 161.895 216.973 165.342 220.857 168.803C224.381 165.647 227.905 162.491 231.429 159.334C232.106 158.642 233.06 157.521 233.806 155.901C234.276 154.891 234.981 153.354 234.926 151.278C234.898 150.447 234.815 148.191 233.143 146.128C232.728 145.63 231.249 143.844 228.596 143.373C227.725 143.221 225.818 143.027 223.828 144.121C221.921 145.173 221.078 146.779 220.801 147.346L220.788 147.333Z" stroke="#07F2B4" stroke-width="2" stroke-linejoin="round"/>
<path d="M188.143 24.4497C187.673 23.7299 186.733 22.5117 185.144 21.5704C184.425 21.1412 183.085 20.3383 181.274 20.3245C178.289 20.2968 176.285 22.3871 175.912 22.7886C173.59 25.2249 173.645 28.2565 173.659 28.9349C173.659 29.364 173.728 31.1913 174.806 33.1847C175.387 34.2783 176.078 35.0535 176.589 35.5518C180.459 39.0126 184.329 42.4595 188.212 45.9203C191.736 42.7641 195.26 39.6078 198.785 36.4516C199.462 35.7595 200.415 34.6382 201.162 33.0186C201.632 32.008 202.336 30.4714 202.281 28.395C202.254 27.5644 202.171 25.308 200.498 23.2454C200.084 22.747 198.605 20.9613 195.951 20.4906C195.081 20.3383 193.174 20.1445 191.183 21.2381C189.276 22.2902 188.433 23.896 188.157 24.4636L188.143 24.4497Z" stroke="#07F2B4" stroke-width="2" stroke-linejoin="round"/>
<path d="M224.515 83.2028V86.982C224.515 87.7295 223.893 88.2832 223.147 88.2555C222.732 88.2417 222.263 88.2555 221.751 88.3663C221.323 88.4493 218.407 89.0446 217.218 91.7578C216.251 93.9312 216.734 96.7136 218.642 98.444C220.728 100.341 223.589 100.174 225.4 99.2469C225.731 99.0808 227.487 98.181 228.164 96.2153C228.385 95.5785 228.426 95.011 228.426 94.6095C228.454 85.7638 228.482 76.9181 228.509 68.0724C228.509 67.3664 229.09 66.7988 229.795 66.7988H233.789C234.438 66.7988 234.991 67.2833 235.06 67.9478C235.129 68.6123 235.267 69.3736 235.558 70.1904C236.677 73.3189 239.165 74.8416 239.925 75.2708C241.293 76.0321 242.606 76.3367 243.615 76.4474C244.251 76.5166 244.734 77.0288 244.762 77.6656C244.804 78.9945 244.831 80.3235 244.873 81.6524C244.886 82.3723 244.32 82.9813 243.587 82.9675C242.565 82.9537 241.307 82.8152 239.925 82.3861C238.723 82.0262 237.7 81.5278 236.871 81.0295C236.041 80.5311 234.936 81.1264 234.936 82.1231V95.0663C234.936 95.0663 234.936 95.1494 234.936 95.1909C234.839 96.3122 234.507 98.2225 233.333 100.216C231.094 104.023 227.473 105.296 226.657 105.559C222.788 106.819 219.54 105.698 218.642 105.379C217.937 105.13 211.801 102.805 210.46 96.3814C209.23 90.5535 212.975 86.2345 213.307 85.8607C216.651 82.1369 221.157 81.8185 223.313 81.9154C223.99 81.9431 224.529 82.5107 224.529 83.2028H224.515Z" stroke="#07F2B4" stroke-width="2" stroke-linejoin="round"/>
<path d="M159.344 81.6079L170.391 70.3848C173.853 74.1212 177.316 77.8715 180.779 81.6079" stroke="#07F2B4" stroke-width="2" stroke-linejoin="round"/>
<path d="M170.51 92.769V70.3848V92.769Z" fill="#262626"/>
<path d="M170.51 92.769V70.3848" stroke="#07F2B4" stroke-width="2" stroke-linejoin="round"/>
<path d="M139.492 141.664V144.615C139.492 145.198 139.007 145.631 138.424 145.609C138.1 145.598 137.734 145.609 137.334 145.695C137 145.76 134.723 146.225 133.795 148.343C133.04 150.04 133.418 152.212 134.907 153.563C136.536 155.044 138.769 154.914 140.183 154.19C140.442 154.06 141.812 153.358 142.341 151.823C142.513 151.326 142.546 150.883 142.546 150.57C142.567 143.664 142.589 136.758 142.61 129.852C142.61 129.301 143.064 128.857 143.614 128.857H146.732C147.239 128.857 147.671 129.236 147.725 129.754C147.779 130.273 147.887 130.868 148.113 131.505C148.987 133.948 150.929 135.137 151.523 135.472C152.591 136.066 153.616 136.304 154.404 136.39C154.9 136.444 155.278 136.844 155.299 137.341C155.332 138.379 155.353 139.416 155.386 140.454C155.396 141.016 154.954 141.491 154.382 141.481C153.584 141.47 152.602 141.362 151.523 141.027C150.584 140.746 149.786 140.357 149.138 139.968C148.491 139.578 147.628 140.043 147.628 140.821V150.926C147.628 150.926 147.628 150.991 147.628 151.024C147.552 151.899 147.293 153.39 146.376 154.947C144.628 157.919 141.801 158.913 141.165 159.118C138.144 160.102 135.608 159.226 134.907 158.978C134.356 158.783 129.566 156.968 128.519 151.953C127.559 147.403 130.483 144.031 130.742 143.739C133.353 140.832 136.87 140.584 138.554 140.659C139.082 140.681 139.503 141.124 139.503 141.664H139.492Z" stroke="#07F2B4" stroke-width="2" stroke-linejoin="round"/>
<path d="M176.984 134.86L188.031 123.637C191.494 127.373 194.957 131.123 198.419 134.86" stroke="#07F2B4" stroke-width="2" stroke-linejoin="round"/>
<path d="M188.15 146.021V123.637V146.021Z" fill="#262626"/>
<path d="M188.15 146.021V123.637" stroke="#07F2B4" stroke-width="2" stroke-linejoin="round"/>
<path d="M151.18 175.936H124.092C122.169 175.936 120.609 177.497 120.609 179.424V198.306C120.609 200.233 122.169 201.794 124.092 201.794H151.18C153.103 201.794 154.663 200.233 154.663 198.306V179.424C154.663 177.497 153.103 175.936 151.18 175.936Z" stroke="#07F2B4" stroke-width="2" stroke-linejoin="round"/>
<path d="M137.658 183.66V194.693" stroke="#07F2B4" stroke-width="2" stroke-linejoin="round"/>
<path d="M132.1 189.168H143.184" stroke="#07F2B4" stroke-width="2" stroke-linejoin="round"/>
<path d="M206.548 202.848C207.018 202.128 207.958 200.91 209.547 199.969C210.266 199.54 211.607 198.737 213.417 198.723C216.402 198.695 218.406 200.786 218.779 201.187C221.101 203.623 221.046 206.655 221.032 207.333C221.032 207.762 220.963 209.59 219.885 211.583C219.305 212.677 218.614 213.452 218.102 213.95C214.233 217.411 210.363 220.858 206.479 224.319C202.955 221.163 199.431 218.006 195.907 214.85C195.23 214.158 194.276 213.037 193.53 211.417C193.06 210.406 192.355 208.87 192.41 206.793C192.438 205.963 192.521 203.706 194.193 201.644C194.608 201.145 196.086 199.36 198.74 198.889C199.611 198.737 201.518 198.543 203.508 199.637C205.415 200.689 206.258 202.294 206.535 202.862L206.548 202.848Z" stroke="#07F2B4" stroke-width="2" stroke-linejoin="round"/>
<path d="M14.8184 63.8116C14.8184 100.745 47.3376 126.119 77.5213 126.617C101.859 127.019 118.872 111.127 123.17 106.877C130.633 107.376 138.096 107.874 145.573 108.372C142.076 101.769 138.566 95.1522 135.069 88.5491C137.681 82.8042 140.584 74.1939 140.238 63.8254C139.34 36.4439 115.956 1.01954 77.5351 1.01954C42.8875 1.00569 14.8184 29.1209 14.8184 63.8116Z" stroke="#07F2B4" stroke-width="2" stroke-linejoin="round"/>
<path d="M55.6038 100.846C61.9467 100.846 67.0886 96.5321 67.0886 91.2109C67.0886 85.8898 61.9467 81.5762 55.6038 81.5762C49.261 81.5762 44.1191 85.8898 44.1191 91.2109C44.1191 96.5321 49.261 100.846 55.6038 100.846Z" stroke="#07F2B4" stroke-width="2" stroke-linejoin="round"/>
<path d="M67.0488 92.0156C67.0626 75.8192 67.0765 59.6367 67.0903 43.4403C79.7912 37.7785 92.5059 32.1306 105.207 26.4688C105.055 42.7897 104.903 59.1245 104.737 75.4455" stroke="#07F2B4" stroke-width="2" stroke-linejoin="round"/>
<path d="M67.0762 55.3833C79.7494 49.6799 92.4227 43.9904 105.096 38.2871" stroke="#07F2B4" stroke-width="2" stroke-linejoin="round"/>
<path d="M93.2679 84.5683C99.6107 84.5683 104.753 80.2547 104.753 74.9336C104.753 69.6125 99.6107 65.2988 93.2679 65.2988C86.9251 65.2988 81.7832 69.6125 81.7832 74.9336C81.7832 80.2547 86.9251 84.5683 93.2679 84.5683Z" stroke="#07F2B4" stroke-width="2" stroke-linejoin="round"/>
<path d="M6.41016 74.123C7.852 84.3701 11.5459 94.4658 17.6428 103.667C23.6711 112.773 31.4296 120.049 40.1905 125.344" stroke="#07F2B4" stroke-width="2" stroke-linecap="round" stroke-linejoin="round"/>
<path d="M147.878 53.8368C146.409 43.6723 142.728 33.6591 136.686 24.5262C130.644 15.3933 122.625 7.88341 113.672 2.57422" stroke="#07F2B4" stroke-width="2" stroke-linecap="round" stroke-linejoin="round"/>
<path d="M153.097 39.65C150.9 32.8278 147.755 26.1845 143.594 19.9262C139.434 13.668 134.833 8.48256 129.602 3.90234" stroke="#07F2B4" stroke-width="2" stroke-linecap="round" stroke-linejoin="round"/>
<path d="M1.26172 88.6484C3.45881 95.4294 6.58967 102.031 10.723 108.262C14.5679 114.067 19.0444 119.197 23.9879 123.64" stroke="#07F2B4" stroke-width="2" stroke-linecap="round" stroke-linejoin="round"/>
<path d="M72.3203 213.105V213.727H73.6299V213.105H72.3203Z" fill="#07F2B4"/>
<path d="M76.3619 228.838C77.1339 229.158 77.9805 229.335 78.8684 229.335H82.1246V228.025H78.8684C78.1557 228.025 77.4793 227.884 76.8635 227.628L76.3619 228.838Z" fill="#07F2B4"/>
<path d="M192.836 229.335H196.093C196.98 229.335 197.827 229.158 198.599 228.838L198.097 227.628C197.482 227.884 196.805 228.025 196.093 228.025H192.836V229.335Z" fill="#07F2B4"/>
<path d="M72.3203 219.767V222.787C72.3203 223.675 72.497 224.521 72.8172 225.293L74.0269 224.792C73.7715 224.176 73.6299 223.499 73.6299 222.787V219.767H72.3203Z" fill="#07F2B4"/>
<path d="M202.641 219.767V222.787C202.641 223.675 202.464 224.521 202.144 225.293L200.934 224.792C201.189 224.176 201.331 223.499 201.331 222.787V219.767H202.641Z" fill="#07F2B4"/>
<path d="M186.324 229.335H179.811V228.025H186.324V229.335Z" fill="#07F2B4"/>
<path d="M173.299 229.335H166.787V228.025H173.299V229.335Z" fill="#07F2B4"/>
<path d="M160.274 229.335H153.762V228.025H160.274V229.335Z" fill="#07F2B4"/>
<path d="M147.249 229.335H140.737V228.025H147.249V229.335Z" fill="#07F2B4"/>
<path d="M134.224 229.335H127.712V228.025H134.224V229.335Z" fill="#07F2B4"/>
<path d="M121.199 229.335H114.687V228.025H121.199V229.335Z" fill="#07F2B4"/>
<path d="M108.174 229.335H101.662V228.025H108.174V229.335Z" fill="#07F2B4"/>
<path d="M95.1495 229.335H88.637V228.025H95.1495V229.335Z" fill="#07F2B4"/>
</svg>
