<svg width="295" height="224" viewBox="0 0 295 224" fill="none" xmlns="http://www.w3.org/2000/svg">
<path d="M155.787 24.9805V63.3492C155.787 75.0285 150.725 86.138 141.904 93.8205L-7.17734 223.656L-8.29703 222.377L140.784 92.542C149.235 85.1818 154.085 74.5385 154.085 63.3492V24.9805H155.787Z" fill="#07F2B4"/>
<path d="M155.787 156.921V223.017H154.085V160.672L82.1896 223.654L81.0661 222.379L155.787 156.921Z" fill="#07F2B4"/>
<path d="M208.725 31.7703V34.6524H207.023V31.7703H208.725Z" fill="#07F2B4"/>
<path d="M208.725 40.4167V46.1809H207.023V40.4167H208.725Z" fill="#07F2B4"/>
<path d="M208.725 51.9452V57.7095H207.023V51.9452H208.725Z" fill="#07F2B4"/>
<path d="M208.725 63.4737V69.238H207.023V63.4737H208.725Z" fill="#07F2B4"/>
<path d="M208.725 75.0023V80.7665H207.023V75.0023H208.725Z" fill="#07F2B4"/>
<path d="M208.725 86.5308V92.2951H207.023V86.5308H208.725Z" fill="#07F2B4"/>
<path d="M208.725 98.0593V103.824H207.023V98.0593H208.725Z" fill="#07F2B4"/>
<path d="M208.725 109.588V115.352H207.023V109.588H208.725Z" fill="#07F2B4"/>
<path d="M208.725 121.116V126.881H207.023V121.116H208.725Z" fill="#07F2B4"/>
<path d="M208.725 132.645V138.409H207.023V132.645H208.725Z" fill="#07F2B4"/>
<path d="M208.725 144.173V149.938H207.023V144.173H208.725Z" fill="#07F2B4"/>
<path d="M208.725 155.702V161.466H207.023V155.702H208.725Z" fill="#07F2B4"/>
<path d="M208.725 167.231V172.995H207.023V167.231H208.725Z" fill="#07F2B4"/>
<path d="M208.725 178.759V184.523H207.023V178.759H208.725Z" fill="#07F2B4"/>
<path d="M208.725 190.288V196.052H207.023V190.288H208.725Z" fill="#07F2B4"/>
<path d="M208.725 201.816V207.58H207.023V201.816H208.725Z" fill="#07F2B4"/>
<path d="M208.725 213.345V216.227H207.023V213.345H208.725Z" fill="#07F2B4"/>
<path d="M262.06 34.6524V31.7703H260.358V34.6524H262.06Z" fill="#07F2B4"/>
<path d="M262.06 46.1809V40.4167H260.358V46.1809H262.06Z" fill="#07F2B4"/>
<path d="M262.06 57.7095V51.9452H260.358V57.7095H262.06Z" fill="#07F2B4"/>
<path d="M262.06 69.238V63.4737H260.358V69.238H262.06Z" fill="#07F2B4"/>
<path d="M262.06 80.7665V75.0023H260.358V80.7665H262.06Z" fill="#07F2B4"/>
<path d="M262.06 92.2951V86.5308H260.358V92.2951H262.06Z" fill="#07F2B4"/>
<path d="M262.06 103.824V98.0593H260.358V103.824H262.06Z" fill="#07F2B4"/>
<path d="M262.06 115.352V109.588H260.358V115.352H262.06Z" fill="#07F2B4"/>
<path d="M262.06 126.881V121.116H260.358V126.881H262.06Z" fill="#07F2B4"/>
<path d="M262.06 138.409V132.645H260.358V138.409H262.06Z" fill="#07F2B4"/>
<path d="M262.06 149.938V144.173H260.358V149.938H262.06Z" fill="#07F2B4"/>
<path d="M262.06 161.466V155.702H260.358V161.466H262.06Z" fill="#07F2B4"/>
<path d="M262.06 172.995V167.231H260.358V172.995H262.06Z" fill="#07F2B4"/>
<path d="M262.06 184.523V178.759H260.358V184.523H262.06Z" fill="#07F2B4"/>
<path d="M262.06 196.052V190.288H260.358V196.052H262.06Z" fill="#07F2B4"/>
<path d="M262.06 207.58V201.816H260.358V207.58H262.06Z" fill="#07F2B4"/>
<path d="M262.06 216.227V213.345H260.358V216.227H262.06Z" fill="#07F2B4"/>
<path d="M153.959 122.067L156.229 120.115L155.117 118.829L152.848 120.781L153.959 122.067Z" fill="#07F2B4"/>
<path d="M144.881 129.875L149.42 125.971L148.309 124.686L143.769 128.59L144.881 129.875Z" fill="#07F2B4"/>
<path d="M135.803 137.683L140.342 133.779L139.23 132.494L134.691 136.398L135.803 137.683Z" fill="#07F2B4"/>
<path d="M126.724 145.492L131.264 141.587L130.152 140.302L125.613 144.206L126.724 145.492Z" fill="#07F2B4"/>
<path d="M117.646 153.3L122.185 149.396L121.074 148.11L116.534 152.014L117.646 153.3Z" fill="#07F2B4"/>
<path d="M110.837 159.156L113.107 157.204L111.995 155.919L109.726 157.871L110.837 159.156Z" fill="#07F2B4"/>
<path d="M77.9328 188.009L75.6632 189.989L74.5424 188.712L76.8119 186.731L77.9328 188.009Z" fill="#07F2B4"/>
<path d="M71.1241 193.95L66.5849 197.911L65.464 196.633L70.0032 192.672L71.1241 193.95Z" fill="#07F2B4"/>
<path d="M62.0457 201.871L57.5066 205.832L56.3856 204.555L60.9248 200.594L62.0457 201.871Z" fill="#07F2B4"/>
<path d="M52.9674 209.793L48.4282 213.754L47.3073 212.476L51.8465 208.515L52.9674 209.793Z" fill="#07F2B4"/>
<path d="M43.889 217.714L41.6194 219.695L40.4985 218.417L42.7681 216.437L43.889 217.714Z" fill="#07F2B4"/>
<path fill-rule="evenodd" clip-rule="evenodd" d="M289.26 45.5534L295.354 56.0839H283.165L289.26 45.5534ZM289.26 48.9493L292.407 54.3864H286.113L289.26 48.9493Z" fill="#07F2B4"/>
<path fill-rule="evenodd" clip-rule="evenodd" d="M289.26 31.7709C289.26 31.7709 295.873 31.7709 299.04 32.6148C300.79 33.0818 302.165 34.4527 302.633 36.1972C303.482 39.3594 303.482 52.0313 303.482 52.0313C303.482 52.0313 303.482 64.7032 302.633 67.862C302.165 69.6065 300.79 70.9775 299.04 71.4445C295.873 72.2917 289.26 72.2917 289.26 72.2917C289.26 72.2917 282.647 72.2917 279.479 71.4445C277.73 70.9775 276.355 69.6066 275.887 67.862C275.037 64.7032 275.037 52.0313 275.037 52.0313C275.037 52.0313 275.037 39.3594 275.887 36.2005C276.355 34.456 277.73 33.0851 279.479 32.6181C282.647 31.7709 289.26 31.7709 289.26 31.7709ZM276.74 52.0312L276.74 52.1706C276.74 52.2629 276.74 52.3991 276.741 52.574C276.743 52.9237 276.746 53.4276 276.753 54.0425C276.766 55.2728 276.792 56.9442 276.845 58.7117C276.898 60.4818 276.976 62.3347 277.093 63.9323C277.214 65.5776 277.366 66.8092 277.531 67.4223C277.842 68.5807 278.758 69.4946 279.92 69.8047C281.31 70.1766 283.59 70.3844 285.646 70.4906C286.648 70.5424 287.554 70.5684 288.211 70.5813C288.539 70.5878 288.803 70.5911 288.985 70.5927L289.09 70.5935L289.192 70.5941L289.244 70.5942L289.257 70.5942H289.26H289.263L289.275 70.5942L289.328 70.5941C289.374 70.5939 289.444 70.5935 289.535 70.5927C289.717 70.5911 289.981 70.5878 290.309 70.5813C290.965 70.5684 291.872 70.5424 292.874 70.4906C294.929 70.3844 297.209 70.1768 298.599 69.805C299.761 69.4949 300.678 68.5815 300.989 67.4231C301.153 66.81 301.306 65.5776 301.426 63.9323C301.543 62.3347 301.622 60.4818 301.675 58.7117C301.727 56.9442 301.754 55.2728 301.767 54.0425C301.774 53.4276 301.777 52.9237 301.779 52.574C301.779 52.3991 301.78 52.2629 301.78 52.1706L301.78 52.0331L301.78 52.0316L301.78 52.0294L301.78 51.892C301.78 51.7997 301.779 51.6634 301.779 51.4886C301.777 51.1388 301.774 50.6349 301.767 50.0201C301.754 48.7896 301.727 47.1181 301.675 45.3505C301.622 43.5801 301.543 41.7269 301.426 40.1289C301.306 38.4831 301.154 37.2507 300.989 36.6365C300.678 35.4784 299.762 34.565 298.601 34.2547C297.21 33.8842 294.93 33.6773 292.875 33.5716C291.872 33.52 290.966 33.4941 290.309 33.4812C289.981 33.4747 289.717 33.4715 289.535 33.4699L289.441 33.4692C289.395 33.4688 289.357 33.4686 289.328 33.4685L289.275 33.4683L289.263 33.4683L289.26 33.4683L289.257 33.4683L289.244 33.4683L289.192 33.4685L289.093 33.4691L288.985 33.4699C288.803 33.4715 288.539 33.4747 288.211 33.4812C287.554 33.4942 286.648 33.5202 285.646 33.5719C283.59 33.6782 281.31 33.8858 279.92 34.2576C278.759 34.5677 277.842 35.4811 277.531 36.6395C277.366 37.2526 277.214 38.4849 277.093 40.1303C276.976 41.7278 276.898 43.5807 276.845 45.3509C276.792 47.1183 276.766 48.7897 276.753 50.0201C276.746 50.635 276.743 51.1389 276.741 51.4886L276.74 51.6817C276.74 51.7666 276.74 51.8371 276.74 51.892L276.74 52.0312Z" fill="#07F2B4"/>
<path fill-rule="evenodd" clip-rule="evenodd" d="M289.26 141.742L295.354 152.272H283.165L289.26 141.742ZM289.26 145.138L292.407 150.575H286.113L289.26 145.138Z" fill="#07F2B4"/>
<path fill-rule="evenodd" clip-rule="evenodd" d="M289.26 127.959C289.26 127.959 295.873 127.959 299.04 128.803C300.79 129.27 302.165 130.641 302.633 132.386C303.482 135.548 303.482 148.22 303.482 148.22C303.482 148.22 303.482 160.892 302.633 164.05C302.165 165.795 300.79 167.166 299.04 167.633C295.873 168.48 289.26 168.48 289.26 168.48C289.26 168.48 282.647 168.48 279.479 167.633C277.73 167.166 276.355 165.795 275.887 164.05C275.037 160.892 275.037 148.22 275.037 148.22C275.037 148.22 275.037 135.548 275.887 132.389C276.355 130.644 277.73 129.274 279.479 128.807C282.647 127.959 289.26 127.959 289.26 127.959ZM276.74 148.22L276.74 148.359C276.74 148.451 276.74 148.588 276.741 148.762C276.743 149.112 276.746 149.616 276.753 150.231C276.766 151.461 276.792 153.133 276.845 154.9C276.898 156.67 276.976 158.523 277.093 160.121C277.214 161.766 277.366 162.998 277.531 163.611C277.842 164.769 278.758 165.683 279.92 165.993C281.31 166.365 283.59 166.573 285.646 166.679C286.648 166.731 287.554 166.757 288.211 166.77C288.539 166.776 288.803 166.779 288.985 166.781C289.075 166.782 289.145 166.782 289.192 166.783L289.244 166.783L289.26 166.783L289.275 166.783L289.328 166.783C289.374 166.782 289.444 166.782 289.535 166.781C289.717 166.779 289.981 166.776 290.309 166.77C290.965 166.757 291.872 166.731 292.874 166.679C294.929 166.573 297.209 166.365 298.599 165.993C299.761 165.683 300.678 164.77 300.989 163.612C301.153 162.998 301.306 161.766 301.426 160.121C301.543 158.523 301.622 156.67 301.675 154.9C301.727 153.133 301.754 151.461 301.767 150.231C301.774 149.616 301.777 149.112 301.779 148.762C301.779 148.588 301.78 148.451 301.78 148.359L301.78 148.222L301.78 148.22L301.78 148.218L301.78 148.08C301.78 147.988 301.779 147.852 301.779 147.677C301.777 147.327 301.774 146.823 301.767 146.208C301.754 144.978 301.727 143.307 301.675 141.539C301.622 139.769 301.543 137.915 301.426 136.317C301.306 134.672 301.154 133.439 300.989 132.825C300.678 131.667 299.762 130.753 298.601 130.443C297.21 130.073 294.93 129.866 292.875 129.76C291.872 129.708 290.966 129.683 290.309 129.67C289.981 129.663 289.717 129.66 289.535 129.658C289.444 129.658 289.374 129.657 289.328 129.657L289.275 129.657L289.26 129.657L289.244 129.657L289.192 129.657L289.111 129.657L289.048 129.658L288.985 129.658C288.803 129.66 288.539 129.663 288.211 129.67C287.554 129.683 286.648 129.709 285.646 129.76C283.59 129.867 281.31 130.074 279.92 130.446C278.759 130.756 277.842 131.669 277.531 132.828C277.366 133.441 277.214 134.673 277.093 136.319C276.976 137.916 276.898 139.769 276.845 141.539C276.792 143.307 276.766 144.978 276.753 146.209C276.746 146.823 276.743 147.327 276.741 147.677C276.74 147.852 276.74 147.988 276.74 148.08L276.74 148.22Z" fill="#07F2B4"/>
<path fill-rule="evenodd" clip-rule="evenodd" d="M235.071 65.9223L241.166 76.4528H228.977L235.071 65.9223ZM235.071 69.3182L238.218 74.7553H231.924L235.071 69.3182Z" fill="#07F2B4"/>
<path fill-rule="evenodd" clip-rule="evenodd" d="M235.071 52.1397C235.071 52.1397 241.684 52.1397 244.852 52.9836C246.601 53.4506 247.976 54.8216 248.444 56.5661C249.294 59.7282 249.294 72.4002 249.294 72.4002C249.294 72.4002 249.294 85.0721 248.444 88.2309C247.976 89.9754 246.601 91.3464 244.852 91.8133C241.684 92.6606 235.071 92.6606 235.071 92.6606C235.071 92.6606 228.458 92.6606 225.291 91.8133C223.541 91.3464 222.167 89.9754 221.698 88.2309C220.849 85.0721 220.849 72.4002 220.849 72.4002C220.849 72.4002 220.849 59.7282 221.698 56.5694C222.167 54.8249 223.541 53.454 225.291 52.987C228.458 52.1397 235.071 52.1397 235.071 52.1397ZM222.551 72.4001L222.551 72.5395C222.551 72.6318 222.552 72.768 222.552 72.9429C222.554 73.2926 222.557 73.7965 222.564 74.4113C222.577 75.6417 222.604 77.3131 222.656 79.0805C222.709 80.8507 222.788 82.7036 222.905 84.3012C223.025 85.9465 223.177 87.1781 223.342 87.7912C223.653 88.9496 224.569 89.8635 225.731 90.1736C227.121 90.5454 229.402 90.7533 231.457 90.8595C232.459 90.9113 233.366 90.9372 234.022 90.9502C234.35 90.9567 234.614 90.9599 234.796 90.9615C234.887 90.9623 234.957 90.9627 235.003 90.9629L235.056 90.9631L235.068 90.9631L235.071 90.9631L235.074 90.9631L235.087 90.9631L235.139 90.9629C235.186 90.9627 235.256 90.9623 235.346 90.9615C235.528 90.9599 235.792 90.9567 236.12 90.9502C236.777 90.9372 237.683 90.9113 238.685 90.8595C240.741 90.7533 243.021 90.5457 244.411 90.1738C245.572 89.8637 246.489 88.9504 246.8 87.792C246.965 87.1789 247.117 85.9465 247.238 84.3012C247.355 82.7036 247.433 80.8507 247.486 79.0805C247.539 77.3131 247.565 75.6417 247.578 74.4113C247.585 73.7965 247.588 73.2926 247.59 72.9429C247.591 72.768 247.591 72.6318 247.591 72.5395L247.592 72.4005L247.591 72.2608C247.591 72.1686 247.591 72.0323 247.59 71.8575C247.588 71.5077 247.585 71.0038 247.578 70.3889C247.565 69.1585 247.539 67.487 247.486 65.7194C247.433 63.949 247.355 62.0958 247.238 60.4977C247.117 58.852 246.965 57.6196 246.8 57.0054C246.489 55.8472 245.574 54.9339 244.412 54.6236C243.022 54.2531 240.741 54.0462 238.686 53.9404C237.684 53.8888 236.777 53.863 236.12 53.85C235.792 53.8436 235.528 53.8404 235.346 53.8388C235.256 53.838 235.186 53.8376 235.139 53.8374L235.087 53.8372L235.074 53.8372L235.072 53.8372L235.068 53.8372L235.056 53.8372L235.003 53.8374C234.957 53.8376 234.887 53.838 234.796 53.8388C234.614 53.8404 234.35 53.8436 234.022 53.8501C233.366 53.8631 232.459 53.889 231.457 53.9408C229.402 54.047 227.122 54.2547 225.732 54.6265C224.57 54.9366 223.653 55.8499 223.343 57.0083C223.178 57.6214 223.025 58.8538 222.905 60.4992C222.788 62.0967 222.709 63.9496 222.656 65.7198C222.604 67.4872 222.577 69.1586 222.564 70.389C222.557 71.0038 222.554 71.5077 222.552 71.8575C222.552 72.0323 222.551 72.1686 222.551 72.2608L222.551 72.4001Z" fill="#07F2B4"/>
<path d="M244.852 112.96C241.684 112.116 235.071 112.116 235.071 112.116C235.071 112.116 228.458 112.116 225.291 112.964C223.541 113.431 222.167 114.802 221.698 116.546C220.849 119.705 220.849 132.377 220.849 132.377L222.551 132.377L222.551 132.237C222.551 132.145 222.552 132.009 222.552 131.834C222.554 131.484 222.557 130.98 222.564 130.366C222.577 129.135 222.604 127.464 222.656 125.696C222.709 123.926 222.788 122.073 222.905 120.476C223.025 118.83 223.177 117.599 223.342 116.986C223.653 115.827 224.569 114.913 225.731 114.603C227.121 114.232 229.402 114.024 231.457 113.917C232.459 113.866 233.366 113.84 234.022 113.827C234.35 113.82 234.614 113.817 234.796 113.815C234.887 113.815 234.957 113.814 235.003 113.814L235.056 113.814L235.071 113.814L235.087 113.814L235.139 113.814C235.186 113.814 235.256 113.815 235.346 113.815C235.528 113.817 235.792 113.82 236.12 113.827C236.777 113.84 237.684 113.865 238.686 113.917C240.741 114.023 243.022 114.23 244.412 114.6C245.574 114.911 246.489 115.824 246.8 116.982C246.965 117.596 247.117 118.829 247.238 120.474C247.355 122.072 247.433 123.926 247.486 125.696C247.539 127.464 247.565 129.135 247.578 130.366C247.585 130.98 247.588 131.484 247.59 131.834C247.591 132.009 247.591 132.145 247.591 132.237L247.592 132.376L249.294 132.377C249.294 132.377 249.294 119.705 248.444 116.543C247.976 114.798 246.601 113.427 244.852 112.96Z" fill="#07F2B4"/>
<path d="M248.444 148.208C249.294 145.049 249.294 132.377 249.294 132.377L247.592 132.376L247.591 132.516C247.591 132.608 247.591 132.745 247.59 132.92C247.588 133.269 247.585 133.773 247.578 134.388C247.565 135.618 247.539 137.29 247.486 139.057C247.433 140.827 247.355 142.68 247.238 144.278C247.117 145.923 246.965 147.155 246.8 147.768C246.489 148.926 245.573 149.84 244.412 150.15C243.021 150.522 240.741 150.73 238.685 150.836C237.683 150.888 236.777 150.914 236.12 150.927C235.792 150.933 235.528 150.937 235.346 150.938C235.256 150.939 235.186 150.939 235.139 150.94L235.087 150.94L235.072 150.94L235.056 150.94L235.003 150.94C234.957 150.939 234.887 150.939 234.796 150.938C234.614 150.937 234.35 150.933 234.022 150.927C233.366 150.914 232.459 150.888 231.457 150.836C229.402 150.73 227.122 150.522 225.732 150.15C224.57 149.84 223.653 148.927 223.343 147.769C223.178 147.156 223.025 145.923 222.905 144.278C222.788 142.68 222.709 140.827 222.656 139.057C222.604 137.29 222.577 135.618 222.564 134.388C222.557 133.773 222.554 133.269 222.552 132.92C222.552 132.745 222.551 132.608 222.551 132.516L222.551 132.377L220.849 132.377C220.849 132.377 220.849 145.049 221.698 148.208C222.167 149.952 223.541 151.323 225.291 151.79C228.458 152.637 235.071 152.637 235.071 152.637C235.071 152.637 241.684 152.637 244.852 151.79C246.601 151.323 247.976 149.952 248.444 148.208Z" fill="#07F2B4"/>
<path fill-rule="evenodd" clip-rule="evenodd" d="M235.071 125.899L228.977 136.429H241.166L235.071 125.899ZM238.218 134.732L235.071 129.295L231.924 134.732H238.218Z" fill="#07F2B4"/>
<path fill-rule="evenodd" clip-rule="evenodd" d="M180.601 141.742L186.695 152.272H174.507L180.601 141.742ZM180.601 145.138L183.748 150.575H177.454L180.601 145.138Z" fill="#07F2B4"/>
<path fill-rule="evenodd" clip-rule="evenodd" d="M180.601 127.959C180.601 127.959 187.214 127.959 190.382 128.803C192.131 129.27 193.506 130.641 193.974 132.386C194.824 135.548 194.824 148.22 194.824 148.22C194.824 148.22 194.824 160.892 193.974 164.05C193.506 165.795 192.131 167.166 190.382 167.633C187.214 168.48 180.601 168.48 180.601 168.48C180.601 168.48 173.988 168.48 170.821 167.633C169.071 167.166 167.696 165.795 167.228 164.05C166.378 160.892 166.378 148.22 166.378 148.22C166.378 148.22 166.378 135.548 167.228 132.389C167.696 130.644 169.071 129.274 170.821 128.807C173.988 127.959 180.601 127.959 180.601 127.959ZM168.081 148.22L168.081 148.359C168.081 148.451 168.082 148.588 168.082 148.762C168.084 149.112 168.087 149.616 168.094 150.231C168.107 151.461 168.133 153.133 168.186 154.9C168.239 156.67 168.318 158.523 168.435 160.121C168.555 161.766 168.707 162.998 168.872 163.611C169.183 164.769 170.099 165.683 171.261 165.993C172.651 166.365 174.932 166.573 176.987 166.679C177.989 166.731 178.896 166.757 179.552 166.77C179.88 166.776 180.144 166.779 180.326 166.781C180.417 166.782 180.486 166.782 180.533 166.783L180.585 166.783L180.601 166.783L180.617 166.783L180.669 166.783C180.716 166.782 180.786 166.782 180.876 166.781C181.058 166.779 181.322 166.776 181.65 166.77C182.307 166.757 183.213 166.731 184.215 166.679C186.27 166.573 188.55 166.365 189.941 165.993C191.102 165.683 192.019 164.77 192.33 163.612C192.495 162.998 192.647 161.766 192.768 160.121C192.884 158.523 192.963 156.67 193.016 154.9C193.069 153.133 193.095 151.461 193.108 150.231C193.115 149.616 193.118 149.112 193.12 148.762C193.121 148.588 193.121 148.451 193.121 148.359L193.121 148.222V148.22V148.218L193.121 148.08C193.121 147.988 193.121 147.852 193.12 147.677C193.118 147.327 193.115 146.823 193.108 146.208C193.095 144.978 193.069 143.307 193.016 141.539C192.963 139.769 192.884 137.915 192.768 136.317C192.647 134.672 192.495 133.439 192.33 132.825C192.019 131.667 191.103 130.753 189.942 130.443C188.551 130.073 186.271 129.866 184.216 129.76C183.214 129.708 182.307 129.683 181.65 129.67C181.322 129.663 181.058 129.66 180.876 129.658C180.786 129.658 180.716 129.657 180.669 129.657L180.617 129.657L180.601 129.657L180.585 129.657L180.533 129.657L180.473 129.657L180.407 129.658L180.326 129.658C180.144 129.66 179.88 129.663 179.552 129.67C178.896 129.683 177.989 129.709 176.987 129.76C174.932 129.867 172.652 130.074 171.262 130.446C170.1 130.756 169.183 131.669 168.872 132.828C168.707 133.441 168.555 134.673 168.435 136.319C168.318 137.916 168.239 139.769 168.186 141.539C168.133 143.307 168.107 144.978 168.094 146.209C168.087 146.823 168.084 147.327 168.082 147.677C168.082 147.852 168.081 147.988 168.081 148.08L168.081 148.22Z" fill="#07F2B4"/>
<path d="M114.852 167.55C113.386 164.626 109.003 159.688 109.003 159.688C109.003 159.688 104.62 154.75 101.885 152.946C100.375 151.949 98.434 151.831 96.8136 152.637C93.8786 154.097 84.363 162.495 84.363 162.495L85.4912 163.766L85.4926 163.765L85.5172 163.743L85.596 163.674C85.6654 163.613 85.768 163.523 85.8998 163.408C86.1635 163.177 86.5441 162.846 87.0101 162.443C87.9428 161.637 89.2153 160.549 90.5775 159.417C91.9417 158.284 93.3853 157.114 94.6624 156.143C95.9777 155.142 97.0034 154.44 97.5731 154.157C98.6491 153.621 99.9424 153.699 100.945 154.361C102.146 155.153 103.813 156.718 105.255 158.182C105.958 158.896 106.579 159.556 107.024 160.038C107.246 160.278 107.423 160.474 107.545 160.608L107.587 160.655L107.658 160.734L107.683 160.762L107.718 160.801L107.728 160.812L107.739 160.824L107.773 160.863C107.804 160.898 107.85 160.951 107.91 161.019C108.029 161.156 108.202 161.355 108.414 161.605C108.84 162.103 109.421 162.798 110.047 163.58C111.329 165.185 112.685 167.025 113.329 168.309C113.866 169.382 113.787 170.671 113.123 171.67C112.771 172.201 111.947 173.132 110.791 174.312C109.668 175.459 108.329 176.746 107.034 177.958C105.742 179.169 104.504 180.297 103.589 181.122C103.132 181.535 102.755 181.871 102.494 182.104C102.363 182.221 102.261 182.311 102.192 182.373L102.089 182.464L102.088 182.465L103.216 183.736C103.216 183.736 112.731 175.338 114.543 172.607C115.542 171.101 115.66 169.166 114.852 167.55Z" fill="#07F2B4"/>
<path d="M90.765 193.594C93.7 192.135 103.216 183.736 103.216 183.736L102.088 182.465L102.086 182.466L102.061 182.488L101.983 182.557C101.913 182.618 101.811 182.708 101.679 182.824C101.415 183.054 101.035 183.386 100.568 183.788C99.6358 184.594 98.3632 185.682 97.0011 186.814C95.6369 187.948 94.1934 189.117 92.9162 190.088C91.6009 191.089 90.5752 191.792 90.0055 192.075C88.9296 192.61 87.6362 192.532 86.6335 191.87C85.4329 191.078 83.7652 189.513 82.3234 188.049C81.6204 187.335 80.9999 186.675 80.5551 186.193C80.3329 185.953 80.1552 185.758 80.0337 185.623C79.998 185.584 79.9672 185.549 79.9415 185.521C79.9235 185.501 79.9081 185.483 79.8952 185.469L79.8605 185.43L79.8522 185.421L79.8503 185.419L79.8481 185.416L79.8398 185.407L79.8053 185.368C79.7745 185.333 79.7284 185.28 79.6689 185.212C79.5498 185.075 79.377 184.876 79.1646 184.627C78.7392 184.128 78.1577 183.434 77.5325 182.651C76.2502 181.046 74.895 179.206 74.2528 177.921C73.7158 176.848 73.7942 175.559 74.458 174.559C74.8091 174.029 75.6334 173.098 76.7891 171.918C77.9112 170.772 79.2504 169.485 80.5447 168.272C81.837 167.062 83.0746 165.934 83.9897 165.109C84.447 164.697 84.8232 164.36 85.0848 164.127C85.2155 164.011 85.3176 163.92 85.3867 163.859L85.4898 163.767L85.4912 163.766L84.363 162.495C84.363 162.495 74.8475 170.894 73.0386 173.622C72.039 175.128 71.9207 177.063 72.7294 178.679C74.1926 181.606 78.5755 186.544 78.5755 186.544C78.5755 186.544 82.9583 191.482 85.6939 193.286C87.204 194.282 89.1446 194.4 90.765 193.594Z" fill="#07F2B4"/>
<path fill-rule="evenodd" clip-rule="evenodd" d="M98.6536 168.822L86.7069 171.251L94.7854 180.353L98.6536 168.822ZM94.1063 177.026L96.1036 171.073L89.9352 172.327L94.1063 177.026Z" fill="#07F2B4"/>
<path fill-rule="evenodd" clip-rule="evenodd" d="M235.071 185.876L241.166 196.406H228.977L235.071 185.876ZM235.071 189.271L238.218 194.709H231.924L235.071 189.271Z" fill="#07F2B4"/>
<path fill-rule="evenodd" clip-rule="evenodd" d="M235.071 172.093C235.071 172.093 241.684 172.093 244.852 172.937C246.601 173.404 247.976 174.775 248.444 176.519C249.294 179.682 249.294 192.353 249.294 192.353C249.294 192.353 249.294 205.025 248.444 208.184C247.976 209.929 246.601 211.3 244.852 211.767C241.684 212.614 235.071 212.614 235.071 212.614C235.071 212.614 228.458 212.614 225.291 211.767C223.541 211.3 222.167 209.929 221.698 208.184C220.849 205.025 220.849 192.353 220.849 192.353C220.849 192.353 220.849 179.682 221.698 176.523C222.167 174.778 223.541 173.407 225.291 172.94C228.458 172.093 235.071 172.093 235.071 172.093ZM222.551 192.353L222.551 192.493C222.551 192.585 222.552 192.721 222.552 192.896C222.554 193.246 222.557 193.75 222.564 194.365C222.577 195.595 222.604 197.266 222.656 199.034C222.709 200.804 222.788 202.657 222.905 204.254C223.025 205.9 223.177 207.131 223.342 207.744C223.653 208.903 224.569 209.817 225.731 210.127C227.121 210.499 229.402 210.707 231.457 210.813C232.459 210.865 233.366 210.891 234.022 210.904C234.35 210.91 234.614 210.913 234.796 210.915C234.887 210.916 234.957 210.916 235.003 210.916L235.056 210.916H235.071H235.087L235.139 210.916C235.186 210.916 235.256 210.916 235.346 210.915C235.528 210.913 235.792 210.91 236.12 210.904C236.777 210.891 237.683 210.865 238.685 210.813C240.741 210.707 243.021 210.499 244.411 210.127C245.572 209.817 246.489 208.904 246.8 207.745C246.965 207.132 247.117 205.9 247.238 204.254C247.355 202.657 247.433 200.804 247.486 199.034C247.539 197.266 247.565 195.595 247.578 194.365C247.585 193.75 247.588 193.246 247.59 192.896C247.591 192.721 247.591 192.585 247.591 192.493L247.592 192.354L247.591 192.214C247.591 192.122 247.591 191.986 247.59 191.811C247.588 191.461 247.585 190.957 247.578 190.342C247.565 189.112 247.539 187.44 247.486 185.673C247.433 183.902 247.355 182.049 247.238 180.451C247.117 178.805 246.965 177.573 246.8 176.959C246.489 175.801 245.574 174.887 244.412 174.577C243.022 174.206 240.741 174 238.686 173.894C237.684 173.842 236.777 173.816 236.12 173.803C235.792 173.797 235.528 173.794 235.346 173.792C235.256 173.791 235.186 173.791 235.139 173.791L235.087 173.791H235.072H235.056L235.003 173.791C234.957 173.791 234.887 173.791 234.796 173.792C234.614 173.794 234.35 173.797 234.022 173.803C233.366 173.816 232.459 173.842 231.457 173.894C229.402 174 227.122 174.208 225.732 174.58C224.57 174.89 223.653 175.803 223.343 176.962C223.178 177.575 223.025 178.807 222.905 180.452C222.788 182.05 222.709 183.903 222.656 185.673C222.604 187.441 222.577 189.112 222.564 190.342C222.557 190.957 222.554 191.461 222.552 191.811C222.552 191.986 222.551 192.122 222.551 192.214L222.551 192.353Z" fill="#07F2B4"/>
<path fill-rule="evenodd" clip-rule="evenodd" d="M181.477 14.6966L187.571 25.2271H175.382L181.477 14.6966ZM181.477 18.0925L184.623 23.5296H178.33L181.477 18.0925Z" fill="#07F2B4"/>
<path fill-rule="evenodd" clip-rule="evenodd" d="M181.477 0.914062C181.477 0.914062 188.09 0.914075 191.257 1.75798C193.007 2.22496 194.381 3.59589 194.85 5.34041C195.699 8.50256 195.699 21.1745 195.699 21.1745C195.699 21.1745 195.699 33.8464 194.85 37.0052C194.381 38.7498 193.007 40.1207 191.257 40.5877C188.09 41.4349 181.477 41.4349 181.477 41.4349C181.477 41.4349 174.864 41.4349 171.696 40.5877C169.947 40.1207 168.572 38.7498 168.104 37.0052C167.254 33.8464 167.254 21.1745 167.254 21.1745C167.254 21.1745 167.254 8.50255 168.104 5.34374C168.572 3.59922 169.947 2.22829 171.696 1.76131C174.864 0.914069 181.477 0.914062 181.477 0.914062ZM168.956 21.1745L168.956 21.3138C168.957 21.4061 168.957 21.5423 168.958 21.7172C168.96 22.0669 168.963 22.5708 168.969 23.1857C168.983 24.4161 169.009 26.0874 169.062 27.8549C169.115 29.625 169.193 31.4779 169.31 33.0755C169.431 34.7208 169.583 35.9524 169.748 36.5655C170.059 37.7239 170.975 38.6379 172.136 38.948C173.526 39.3198 175.807 39.5276 177.862 39.6338C178.864 39.6856 179.771 39.7116 180.428 39.7246C180.755 39.731 181.02 39.7343 181.201 39.7359C181.292 39.7367 181.362 39.7371 181.409 39.7373L181.461 39.7374L181.476 39.7375L181.492 39.7374L181.545 39.7373C181.591 39.7371 181.661 39.7367 181.752 39.7359C181.933 39.7343 182.198 39.731 182.526 39.7246C183.182 39.7116 184.089 39.6856 185.091 39.6338C187.146 39.5276 189.426 39.32 190.816 38.9482C191.978 38.6381 192.894 37.7247 193.205 36.5663C193.37 35.9532 193.523 34.7208 193.643 33.0755C193.76 31.4779 193.839 29.625 193.892 27.8549C193.944 26.0874 193.971 24.4161 193.984 23.1857C193.99 22.5708 193.994 22.0669 193.995 21.7172C193.996 21.5423 193.997 21.4061 193.997 21.3138L193.997 21.1749L193.997 21.0352C193.997 20.9429 193.996 20.8066 193.995 20.6318C193.994 20.282 193.99 19.7781 193.984 19.1633C193.971 17.9328 193.944 16.2614 193.892 14.4937C193.839 12.7233 193.76 10.8701 193.643 9.27205C193.523 7.62634 193.37 6.39388 193.205 5.77971C192.895 4.62157 191.979 3.70821 190.818 3.39791C189.427 3.02737 187.146 2.82057 185.091 2.71477C184.089 2.66319 183.182 2.63732 182.526 2.62439C182.198 2.61793 181.933 2.61471 181.752 2.61311C181.661 2.61231 181.591 2.61192 181.545 2.61172L181.492 2.61153H181.477H181.461L181.409 2.61172C181.362 2.61191 181.292 2.61231 181.201 2.61311C181.02 2.61471 180.755 2.61795 180.428 2.62443C179.771 2.63741 178.864 2.66337 177.862 2.71516C175.807 2.82137 173.527 3.02898 172.137 3.40081C170.975 3.71089 170.059 4.62427 169.748 5.78268C169.583 6.39577 169.431 7.62816 169.31 9.2735C169.193 10.871 169.115 12.7239 169.062 14.4941C169.009 16.2616 168.983 17.9329 168.969 19.1633C168.963 19.7782 168.96 20.2821 168.958 20.6318C168.957 20.8066 168.957 20.9429 168.956 21.0352L168.956 21.1745Z" fill="#07F2B4"/>
</svg>
